<svg width="60" height="60" viewBox="0 0 60 60" fill="none" xmlns="http://www.w3.org/2000/svg">
<g clip-path="url(#clip0_1_712)">
<path d="M30 60C24.0666 60 18.2664 58.2405 13.3329 54.9441C8.39943 51.6477 4.55426 46.9623 2.28363 41.4805C0.0129984 35.9987 -0.581102 29.9667 0.576455 24.1473C1.73401 18.3279 4.59124 12.9824 8.78681 8.78681C12.9824 4.59124 18.3279 1.73401 24.1473 0.576455C29.9667 -0.581102 35.9987 0.0129984 41.4805 2.28363C46.9623 4.55426 51.6477 8.39943 54.9441 13.3329C58.2405 18.2664 60 24.0666 60 30C59.9911 37.9538 56.8275 45.5792 51.2034 51.2034C45.5792 56.8275 37.9538 59.9911 30 60ZM30 2.34376C24.5301 2.34376 19.1831 3.96577 14.635 7.00468C10.087 10.0436 6.54221 14.3629 4.44897 19.4164C2.35573 24.4699 1.80805 30.0307 2.87517 35.3955C3.94229 40.7603 6.5763 45.6881 10.4441 49.5559C14.3119 53.4237 19.2398 56.0577 24.6045 57.1249C29.9693 58.192 35.5301 57.6443 40.5836 55.5511C45.6371 53.4578 49.9564 49.913 52.9953 45.365C56.0343 40.817 57.6563 35.4699 57.6563 30C57.648 22.6677 54.7315 15.638 49.5468 10.4533C44.362 5.26852 37.3324 2.35208 30 2.34376Z" fill="black"/>
<path d="M30 9.33019C29.6892 9.33019 29.3911 9.20673 29.1714 8.98696C28.9516 8.76719 28.8281 8.46912 28.8281 8.15832V5.27832C28.8281 4.96752 28.9516 4.66945 29.1714 4.44968C29.3911 4.22991 29.6892 4.10645 30 4.10645C30.3108 4.10645 30.6089 4.22991 30.8286 4.44968C31.0484 4.66945 31.1719 4.96752 31.1719 5.27832V8.15832C31.1719 8.46912 31.0484 8.76719 30.8286 8.98696C30.6089 9.20673 30.3108 9.33019 30 9.33019ZM19.0802 12.2578C18.8743 12.258 18.672 12.2039 18.4936 12.1011C18.3153 11.9982 18.1672 11.8502 18.0642 11.6718L16.6242 9.17621C16.4713 8.9072 16.4309 8.58861 16.512 8.28996C16.5931 7.99132 16.789 7.73687 17.057 7.58214C17.325 7.42741 17.6433 7.38496 17.9425 7.46406C18.2416 7.54315 18.4974 7.73738 18.6539 8.00434L20.0939 10.4986C20.1967 10.6766 20.2508 10.8786 20.2509 11.0842C20.251 11.2898 20.1969 11.4918 20.0942 11.6699C19.9915 11.848 19.8437 11.996 19.6657 12.0989C19.4878 12.2019 19.2858 12.2562 19.0802 12.2564V12.2578ZM11.0834 20.2511C10.8776 20.2513 10.6754 20.1971 10.4974 20.0939L8.00437 18.6539C7.73741 18.4974 7.54318 18.2416 7.46409 17.9424C7.38499 17.6433 7.42744 17.325 7.58217 17.057C7.7369 16.789 7.99135 16.5931 8.28999 16.512C8.58864 16.4309 8.90723 16.4712 9.17624 16.6242L11.6705 18.0642C11.894 18.1931 12.0687 18.3922 12.1675 18.6306C12.2663 18.869 12.2836 19.1333 12.2168 19.3825C12.1501 19.6318 12.0029 19.852 11.7981 20.0091C11.5934 20.1661 11.3426 20.2512 11.0845 20.2511H11.0834ZM8.15835 31.1718H5.27835C4.96755 31.1718 4.66948 31.0484 4.44971 30.8286C4.22994 30.6088 4.10648 30.3108 4.10648 30C4.10648 29.6892 4.22994 29.3911 4.44971 29.1713C4.66948 28.9516 4.96755 28.8281 5.27835 28.8281H8.15835C8.46915 28.8281 8.76722 28.9516 8.98699 29.1713C9.20676 29.3911 9.33023 29.6892 9.33023 30C9.33023 30.3108 9.20676 30.6088 8.98699 30.8286C8.76722 31.0484 8.46915 31.1718 8.15835 31.1718ZM8.59148 43.533C8.33344 43.5331 8.08259 43.448 7.87786 43.2909C7.67312 43.1339 7.52595 42.9137 7.45917 42.6644C7.39239 42.4152 7.40974 42.1508 7.50853 41.9125C7.60732 41.6741 7.78203 41.475 8.00554 41.3461L10.4998 39.9061C10.7688 39.7531 11.0874 39.7128 11.386 39.7938C11.6846 39.8749 11.9391 40.0708 12.0938 40.3388C12.2486 40.6068 12.291 40.9251 12.2119 41.2243C12.1328 41.5235 11.9386 41.7792 11.6716 41.9357L9.17624 43.3757C8.99854 43.4787 8.79684 43.5329 8.59148 43.533ZM17.6379 52.5818C17.4323 52.5815 17.2303 52.5272 17.0524 52.4243C16.8744 52.3214 16.7266 52.1734 16.6239 51.9953C16.5212 51.8172 16.4672 51.6152 16.4672 51.4096C16.4673 51.204 16.5214 51.002 16.6242 50.8239L18.0642 48.3297C18.1406 48.1954 18.2428 48.0775 18.3649 47.9828C18.4871 47.8881 18.6268 47.8185 18.7759 47.778C18.925 47.7375 19.0807 47.7269 19.234 47.7468C19.3872 47.7668 19.5351 47.8168 19.6689 47.8941C19.8027 47.9713 19.92 48.0743 20.0138 48.1971C20.1077 48.3199 20.1764 48.46 20.2159 48.6094C20.2554 48.7588 20.2649 48.9146 20.244 49.0677C20.2231 49.2208 20.1721 49.3683 20.0939 49.5016L18.6539 51.9956C18.551 52.1739 18.4029 52.322 18.2245 52.4249C18.0461 52.5278 17.8438 52.5819 17.6379 52.5818ZM30 55.8935C29.6892 55.8935 29.3911 55.77 29.1714 55.5502C28.9516 55.3305 28.8281 55.0324 28.8281 54.7216V51.8416C28.8281 51.5308 28.9516 51.2327 29.1714 51.013C29.3911 50.7932 29.6892 50.6697 30 50.6697C30.3108 50.6697 30.6089 50.7932 30.8286 51.013C31.0484 51.2327 31.1719 51.5308 31.1719 51.8416V54.7216C31.1719 55.0324 31.0484 55.3305 30.8286 55.5502C30.6089 55.77 30.3108 55.8935 30 55.8935ZM42.3621 52.5818C42.1562 52.582 41.9539 52.5279 41.7755 52.425C41.5971 52.3222 41.449 52.1741 41.3461 51.9958L39.9061 49.5016C39.7531 49.2326 39.7128 48.914 39.7939 48.6154C39.875 48.3167 40.0709 48.0623 40.3389 47.9075C40.6069 47.7528 40.9252 47.7104 41.2243 47.7894C41.5235 47.8685 41.7793 48.0628 41.9358 48.3297L43.3758 50.8239C43.4786 51.002 43.5327 51.204 43.5328 51.4096C43.5328 51.6152 43.4788 51.8172 43.3761 51.9953C43.2734 52.1734 43.1256 52.3214 42.9476 52.4243C42.7696 52.5272 42.5677 52.5815 42.3621 52.5818ZM51.4085 43.533C51.2031 43.5329 51.0014 43.4787 50.8237 43.3757L48.3295 41.9357C48.0626 41.7792 47.8683 41.5235 47.7892 41.2243C47.7101 40.9251 47.7526 40.6068 47.9073 40.3388C48.0621 40.0708 48.3165 39.8749 48.6152 39.7938C48.9138 39.7128 49.2324 39.7531 49.5014 39.9061L51.9956 41.3461C52.2192 41.475 52.394 41.6743 52.4927 41.9127C52.5915 42.1512 52.6088 42.4157 52.5418 42.665C52.4749 42.9143 52.3275 43.1345 52.1226 43.2915C51.9177 43.4484 51.6666 43.5333 51.4085 43.533ZM54.7216 31.1718H51.8416C51.5308 31.1718 51.2328 31.0484 51.013 30.8286C50.7932 30.6088 50.6698 30.3108 50.6698 30C50.6698 29.6892 50.7932 29.3911 51.013 29.1713C51.2328 28.9516 51.5308 28.8281 51.8416 28.8281H54.7216C55.0324 28.8281 55.3305 28.9516 55.5503 29.1713C55.77 29.3911 55.8935 29.6892 55.8935 30C55.8935 30.3108 55.77 30.6088 55.5503 30.8286C55.3305 31.0484 55.0324 31.1718 54.7216 31.1718ZM48.9166 20.2511C48.6585 20.2515 48.4075 20.1666 48.2025 20.0096C47.9976 19.8526 47.8502 19.6324 47.7833 19.3831C47.7164 19.1338 47.7336 18.8694 47.8324 18.6309C47.9312 18.3924 48.1059 18.1932 48.3295 18.0642L50.8237 16.6242C50.9571 16.546 51.1045 16.495 51.2577 16.4741C51.4108 16.4531 51.5665 16.4627 51.7159 16.5022C51.8654 16.5417 52.0055 16.6104 52.1283 16.7042C52.251 16.7981 52.354 16.9153 52.4313 17.0492C52.5086 17.183 52.5586 17.3308 52.5785 17.4841C52.5984 17.6373 52.5878 17.793 52.5473 17.9422C52.5069 18.0913 52.4373 18.231 52.3426 18.3531C52.2479 18.4753 52.13 18.5775 51.9956 18.6539L49.5014 20.0939C49.3237 20.1969 49.122 20.2512 48.9166 20.2511ZM40.9198 12.2578C40.7142 12.2576 40.5122 12.2033 40.3342 12.1003C40.1563 11.9974 40.0085 11.8494 39.9058 11.6713C39.8031 11.4932 39.749 11.2912 39.7491 11.0856C39.7491 10.88 39.8033 10.678 39.9061 10.5L41.3461 8.00574C41.4225 7.87139 41.5247 7.75348 41.6468 7.65879C41.769 7.5641 41.9086 7.4945 42.0578 7.45401C42.2069 7.41352 42.3626 7.40293 42.5159 7.42285C42.6691 7.44277 42.8169 7.49281 42.9508 7.57008C43.0846 7.64736 43.2018 7.75034 43.2957 7.87311C43.3896 7.99588 43.4583 8.136 43.4978 8.28541C43.5373 8.43483 43.5468 8.59058 43.5259 8.7437C43.505 8.89682 43.4539 9.04429 43.3758 9.17762L41.9358 11.6718C41.8328 11.8502 41.6847 11.9982 41.5063 12.1011C41.328 12.2039 41.1257 12.258 40.9198 12.2578ZM36.9119 35.1635C36.7062 35.1636 36.5041 35.1093 36.326 35.0062L29.4119 31.0148C29.2342 30.9117 29.0867 30.7636 28.9842 30.5855C28.8817 30.4074 28.8279 30.2055 28.8281 30V13.5025C28.8281 13.1917 28.9516 12.8937 29.1714 12.6739C29.3911 12.4541 29.6892 12.3307 30 12.3307C30.3108 12.3307 30.6089 12.4541 30.8286 12.6739C31.0484 12.8937 31.1719 13.1917 31.1719 13.5025V29.3229L37.5 32.9765C37.7235 33.1055 37.8982 33.3046 37.997 33.5429C38.0958 33.7813 38.1131 34.0456 38.0464 34.2949C37.9796 34.5441 37.8324 34.7644 37.6277 34.9214C37.4229 35.0785 37.1721 35.1636 36.9141 35.1635H36.9119Z" fill="#F63150"/>
</g>
<defs>
<clipPath id="clip0_1_712">
<rect width="60" height="60" fill="white"/>
</clipPath>
</defs>
</svg>
