<svg width="68" height="68" viewBox="0 0 68 68" fill="none" xmlns="http://www.w3.org/2000/svg">
<path d="M27.8406 64.9544C27.6837 64.9544 27.5273 64.9204 27.3818 64.8529C27.3092 64.8189 19.9163 61.2543 12.8597 53.4806C8.90663 49.1258 5.83167 44.3033 3.72004 39.1475C1.09297 32.7324 -0.0417191 25.7823 0.347241 18.49C0.374894 17.9746 0.760681 17.5494 1.27113 17.4723C8.05391 16.4473 14.3611 13.8651 20.0169 9.79781C24.0303 6.91144 26.3758 4.20458 26.9992 3.44389C27.1013 3.31933 27.2297 3.21898 27.3753 3.15008C27.5209 3.08117 27.6799 3.04542 27.841 3.04541C28.167 3.04541 28.4761 3.19184 28.6828 3.44389L28.7264 3.49738C29.9603 5.0156 34.6238 10.2593 42.8336 13.9898C43.3808 14.2382 43.6224 14.8833 43.374 15.4305C43.1256 15.9777 42.4805 16.2197 41.9333 15.9708C38.0242 14.1947 34.4334 11.9026 31.2596 9.15816C30.3316 8.3553 29.0541 7.17664 27.831 5.80168C26.6465 7.10048 24.4501 9.28962 21.2872 11.564C18.671 13.4453 15.8621 15.051 12.939 16.3358C9.59399 17.8061 6.08183 18.8622 2.48063 19.4806C2.03137 31.8112 6.06241 42.7547 14.4708 52.0176C17.1736 54.9951 20.3678 57.789 23.708 60.097C25.6482 61.4375 27.1338 62.2707 27.8424 62.6456C29.245 61.9089 33.6568 59.4165 38.4073 54.9471C45.7268 48.06 50.393 39.9105 52.2752 30.7241C52.3958 30.1353 52.9715 29.7563 53.5595 29.8769C54.1484 29.9974 54.5278 30.5723 54.4068 31.1611C53.3229 36.4506 51.3155 41.4903 48.4405 46.1402C46.1307 49.8761 43.2566 53.3722 39.8983 56.5319C33.8196 62.2512 28.3542 64.827 28.2998 64.8524C28.1538 64.9204 27.997 64.9544 27.8406 64.9544Z" fill="#07122E"/>
<path d="M27.8405 58.5919C27.6837 58.5919 27.5273 58.5579 27.3818 58.4904C27.3242 58.4636 21.4635 55.638 15.8798 49.4863C12.7509 46.0391 10.3165 42.2212 8.64458 38.1389C6.56378 33.0584 5.66527 27.5549 5.97308 21.7822C6.00073 21.2667 6.38652 20.8415 6.89698 20.7644C12.1983 19.9634 17.1278 17.9452 21.5487 14.7659C24.6844 12.5106 26.5136 10.4003 26.9991 9.80693C27.2059 9.55487 27.5146 9.40845 27.841 9.40845C28.1674 9.40845 28.4761 9.55487 28.6828 9.80693L28.7272 9.86178C29.9082 11.3202 34.3771 16.2973 42.3109 19.1089C42.8771 19.3097 43.1736 19.9312 42.9732 20.4979C42.7724 21.0641 42.1509 21.3606 41.5842 21.1602C37.7545 19.8029 34.2402 17.8282 31.1394 15.29C30.24 14.5538 29.0065 13.4635 27.8287 12.1575C26.855 13.2038 25.1749 14.8389 22.8199 16.533C20.7477 18.0231 18.5232 19.2947 16.208 20.3125C13.6161 21.4516 10.8974 22.2771 8.10964 22.7714C7.80591 32.3362 10.9597 40.829 17.4918 48.0252C21.8996 52.8808 26.4189 55.5197 27.8428 56.2827C29.0967 55.6154 32.7329 53.5191 36.5268 49.829C42.5145 44.0059 46.1094 37.0994 47.2119 29.3021C47.2962 28.7073 47.8466 28.293 48.4414 28.3773C49.0361 28.4611 49.4505 29.0119 49.3661 29.6067C46.5111 49.8018 28.482 58.407 28.3002 58.4918C28.1558 58.5574 27.9991 58.5916 27.8405 58.5919Z" fill="#07122E"/>
<path d="M54.2454 32.0636C50.6441 32.0636 47.2582 30.6615 44.7118 28.116C42.165 25.5701 40.7628 22.185 40.7628 18.5847C40.7628 14.9843 42.1654 11.5993 44.7118 9.05334C47.2582 6.50742 50.6441 5.10571 54.2454 5.10571C57.8467 5.10571 61.2326 6.50787 63.779 9.05334C66.3258 11.5993 67.728 14.9843 67.728 18.5847C67.728 22.185 66.3254 25.5701 63.779 28.116C61.2322 30.6615 57.8467 32.0636 54.2454 32.0636ZM54.2454 7.28126C48.0107 7.28126 42.9388 12.3518 42.9388 18.5842C42.9388 24.8166 48.0112 29.8872 54.2454 29.8872C60.4796 29.8872 65.552 24.8171 65.552 18.5847C65.552 12.3522 60.4796 7.28126 54.2454 7.28126Z" fill="#07122E"/>
<path d="M50.8259 23.8492C50.5317 23.8492 50.2388 23.7305 50.0249 23.4975L47.1489 20.3695C46.7423 19.927 46.7713 19.2388 47.2133 18.8322C47.6553 18.4256 48.3439 18.4546 48.7505 18.8966L50.9143 21.2498L59.8323 13.5826C60.2879 13.1909 60.9747 13.2426 61.3664 13.6982C61.758 14.1538 61.7064 14.8406 61.2508 15.2327L51.5349 23.5863C51.3296 23.7622 51.0771 23.8492 50.8259 23.8492ZM28.4276 39.9104C25.1337 39.9104 22.454 37.2307 22.454 33.9368C22.454 30.6429 25.1337 27.9632 28.4276 27.9632C31.7215 27.9632 34.4012 30.6429 34.4012 33.9368C34.4012 37.2307 31.7211 39.9104 28.4276 39.9104ZM28.4276 30.1397C26.3337 30.1397 24.63 31.8433 24.63 33.9373C24.63 36.0312 26.3337 37.7348 28.4276 37.7348C30.5216 37.7348 32.2252 36.0312 32.2252 33.9373C32.2252 31.8433 30.5211 30.1397 28.4276 30.1397Z" fill="#F63150"/>
<path d="M29.7967 47.1828H26.4869C25.9329 47.1828 25.4669 46.7662 25.4057 46.2154L25.1369 43.8068C24.5072 43.597 23.8992 43.3271 23.3213 43.0008L21.4807 44.4714C21.0478 44.8173 20.424 44.7829 20.0323 44.3907L17.6918 42.0502C17.3001 41.6585 17.2652 41.0347 17.6111 40.6018L19.1597 38.6642C18.864 38.0862 18.6237 37.4815 18.4421 36.8581L16.0689 36.5934C15.5181 36.5317 15.1014 36.0662 15.1014 35.5122V32.2024C15.1014 31.648 15.5181 31.1824 16.0689 31.1212L18.4915 30.851C18.6887 30.2144 18.9473 29.5985 19.2635 29.0118L17.8128 27.1967C17.4669 26.7638 17.5014 26.14 17.8935 25.7483L20.2341 23.4077C20.6258 23.0156 21.2495 22.9811 21.6825 23.327L23.4967 24.7768C24.1175 24.4415 24.7712 24.1709 25.4474 23.9694L25.6913 21.7848C25.753 21.234 26.2185 20.8174 26.7725 20.8174H30.0823C30.6363 20.8174 31.1023 21.234 31.1635 21.7848L31.4074 23.9694C32.1202 24.1819 32.8078 24.471 33.4583 24.8317L35.0885 23.5288C35.5214 23.1829 36.1452 23.2173 36.5369 23.6095L38.8774 25.95C39.2691 26.3417 39.304 26.9659 38.9581 27.3984L37.6221 29.0703C37.9782 29.7403 38.259 30.4475 38.4594 31.1792L40.5003 31.4068C41.0511 31.4684 41.4678 31.934 41.4678 32.488V35.7978C41.4678 36.3522 41.0511 36.8178 40.5003 36.879L38.3325 37.1211C38.1058 37.8274 37.8048 38.5046 37.4322 39.147L38.7564 40.8039C39.1023 41.2369 39.0678 41.8607 38.6757 42.2523L36.3351 44.5929C35.9434 44.9846 35.3192 45.0195 34.8867 44.6736L33.0897 43.2374C32.4626 43.5525 31.8051 43.8028 31.1272 43.9845L30.8783 46.2158C30.8167 46.7662 30.3511 47.1828 29.7967 47.1828ZM27.4602 45.0068H28.8234L29.0501 42.9741C29.0759 42.7419 29.1758 42.5243 29.3349 42.3534C29.494 42.1824 29.7039 42.0672 29.9336 42.0248C30.8929 41.8475 31.805 41.503 32.6436 41.0011C32.8339 40.8873 33.0545 40.8343 33.2758 40.8493C33.497 40.8643 33.7085 40.9465 33.8817 41.085L35.4847 42.3661L36.4485 41.4023L35.248 39.9C35.102 39.7173 35.0188 39.4925 35.0106 39.2588C35.0025 39.0251 35.0698 38.795 35.2027 38.6026C35.7784 37.7684 36.1896 36.8482 36.4253 35.8667C36.4776 35.6493 36.5956 35.4532 36.7632 35.3052C36.9309 35.1573 37.1401 35.0646 37.3624 35.0398L39.2913 34.8245V33.4613L37.4535 33.2564C37.2226 33.2306 37.006 33.1316 36.8354 32.9738C36.6649 32.8161 36.5493 32.6078 36.5056 32.3797C36.3129 31.3733 35.9366 30.4217 35.3877 29.5527C35.2669 29.3614 35.2088 29.1372 35.2213 28.9114C35.2338 28.6855 35.3163 28.4692 35.4575 28.2924L36.6502 26.8L35.6864 25.8362L34.2244 27.0049C34.0448 27.1483 33.8245 27.2312 33.5949 27.2417C33.3654 27.2522 33.1384 27.1898 32.9465 27.0634C32.0987 26.5049 31.1676 26.1128 30.1789 25.8988C29.9562 25.8506 29.7543 25.7337 29.6016 25.5646C29.4489 25.3955 29.3532 25.1827 29.3279 24.9563L29.109 22.9938H27.7458L27.5269 24.9563C27.5016 25.1827 27.4059 25.3955 27.2532 25.5646C27.1005 25.7337 26.8986 25.8506 26.6759 25.8988C25.7199 26.106 24.8164 26.48 23.9904 27.0099C23.7989 27.1329 23.5736 27.1927 23.3463 27.1809C23.119 27.1691 22.9011 27.0863 22.7233 26.9442L21.0841 25.6341L20.1203 26.5978L21.4309 28.2375C21.7219 28.602 21.7487 29.1116 21.4971 29.5042C20.9862 30.3011 20.6199 31.172 20.4091 32.0922C20.3587 32.3122 20.2412 32.5111 20.0728 32.6613C19.9045 32.8116 19.6936 32.9058 19.4693 32.9309L17.2774 33.1757V34.5389L19.4335 34.7796C19.9004 34.8317 20.2812 35.1776 20.3778 35.6373C20.5686 36.5467 20.9114 37.4116 21.3955 38.2073C21.5115 38.3979 21.5661 38.6195 21.5519 38.8422C21.5377 39.0648 21.4554 39.2778 21.3162 39.4521L19.919 41.2006L20.8828 42.1644L22.5606 40.8234C22.7414 40.6789 22.9636 40.5958 23.195 40.5863C23.4263 40.5767 23.6546 40.6412 23.8467 40.7704C24.627 41.2957 25.4924 41.682 26.4044 41.9123C26.6192 41.9666 26.8123 42.0851 26.9578 42.2521C27.1034 42.4191 27.1945 42.6265 27.219 42.8467L27.4602 45.0068Z" fill="#F63150"/>
</svg>
