<svg width="68" height="68" viewBox="0 0 68 68" fill="none" xmlns="http://www.w3.org/2000/svg">
<path d="M48.0781 27.3594C47.345 27.3594 46.75 27.9544 46.75 28.6875C46.75 29.4206 47.345 30.0156 48.0781 30.0156C48.8112 30.0156 49.4062 29.4206 49.4062 28.6875C49.4062 27.9544 48.8112 27.3594 48.0781 27.3594Z" fill="#F63150"/>
<path d="M68 47.2812V36.6562C68 28.6006 61.4462 22.0469 53.3906 22.0469H41.5805C40.2432 20.5553 38.5355 19.414 36.6562 18.747V11.9513C37.1586 11.5739 37.6051 11.1274 37.9824 10.625H47.2812C49.4782 10.625 51.2656 8.83761 51.2656 6.64062C51.2656 4.44364 49.4782 2.65625 47.2812 2.65625H37.9817C36.7363 1.0018 34.7675 0 32.6719 0C30.5765 0 28.6081 1.00141 27.3622 2.65625H18.0625C15.8655 2.65625 14.0781 4.44364 14.0781 6.64062C14.0781 8.83761 15.8655 10.625 18.0625 10.625H27.3612C27.7386 11.1274 28.1851 11.5738 28.6875 11.9511V18.747C26.8078 19.4143 25.1004 20.5554 23.7632 22.0467H10.625V20.7186C10.625 18.5216 8.83761 16.7342 6.64062 16.7342H1.32812C0.594602 16.7342 0 17.3288 0 18.0624V41.9686C0 42.7021 0.594602 43.2967 1.32812 43.2967H6.64062C8.83761 43.2967 10.625 41.5093 10.625 39.3124V37.9842H23.7624C26.0316 40.5244 29.2432 41.9686 32.6719 41.9686C36.1006 41.9686 39.3121 40.5244 41.5813 37.9842H50.7344C51.4667 37.9842 52.0625 38.58 52.0625 39.3124V47.2811C52.0625 48.0146 52.6571 48.596 53.3906 48.596H57.482C55.4313 51.6362 52.0625 57.091 52.0625 60.0312C52.0625 64.4252 55.6373 68 60.0312 68C64.4252 68 68 64.4252 68 60.0312C68 57.091 64.6312 51.6496 62.5805 48.6094H66.6719C67.4054 48.6094 68 48.0148 68 47.2812ZM39.1774 5.3125H47.2812C48.0136 5.3125 48.6094 5.9083 48.6094 6.64062C48.6094 7.37295 48.0136 7.96875 47.2812 7.96875H39.1774C39.2663 7.53312 39.3125 7.0882 39.3125 6.64062C39.3125 6.19305 39.2663 5.74813 39.1774 5.3125ZM26.1663 7.96875H18.0625C17.3302 7.96875 16.7344 7.37295 16.7344 6.64062C16.7344 5.9083 17.3302 5.29922 18.0625 5.29922H26.1663C26.0775 5.73484 26.0312 6.19305 26.0312 6.64062C26.0312 7.0882 26.0775 7.53312 26.1663 7.96875ZM7.96875 39.3125C7.96875 40.0448 7.37295 40.6406 6.64062 40.6406H2.65625V19.3906H6.64062C7.37295 19.3906 7.96875 19.9864 7.96875 20.7188V39.3125ZM32.6719 2.65625C34.8306 2.65625 36.6562 4.40327 36.6562 6.64062C36.6562 8.85859 34.8581 10.625 32.6719 10.625C30.4692 10.625 28.6875 8.84027 28.6875 6.64062C28.6875 4.40778 30.5085 2.65625 32.6719 2.65625ZM34 13.1462V18.1387C33.1173 18.0415 32.2265 18.0415 31.3438 18.1387V13.1462C31.7794 13.235 32.2243 13.2812 32.6719 13.2812C33.1195 13.2812 33.5644 13.235 34 13.1462ZM65.3438 60.0312C65.3438 62.9606 62.9606 65.3438 60.0312 65.3438C57.1019 65.3438 54.7188 62.9606 54.7188 60.0312C54.7188 57.9976 57.6437 53.0643 60.0314 49.5818C62.4191 53.0632 65.3438 57.9956 65.3438 60.0312ZM65.3438 45.9531H54.7188V39.3125C54.7188 37.1155 52.9314 35.3281 50.7344 35.3281H40.966C40.767 35.3281 40.5706 35.3728 40.3912 35.4589C40.2119 35.5451 40.0541 35.6704 39.9297 35.8256C38.1536 38.0416 35.5081 39.3125 32.6719 39.3125C29.8357 39.3125 27.1902 38.0416 25.4141 35.8256C25.2896 35.6704 25.1319 35.5451 24.9525 35.4589C24.7731 35.3728 24.5767 35.3281 24.3777 35.3281H10.625V24.7031H24.3777C24.5767 24.7031 24.7732 24.6584 24.9526 24.5723C25.1319 24.4862 25.2897 24.3608 25.4141 24.2055C26.6665 22.6425 28.4183 21.5087 30.3477 21.0125C31.8579 20.6225 33.4847 20.6223 34.9973 21.0128C36.9256 21.5087 38.6773 22.6425 39.9297 24.2055C40.0541 24.3608 40.2118 24.4861 40.3912 24.5722C40.5706 24.6584 40.767 24.7031 40.966 24.7031H53.3906C59.9816 24.7031 65.3438 30.0653 65.3438 36.6562V45.9531Z" fill="black"/>
<path d="M53.3906 27.3594C52.6571 27.3594 52.0625 27.954 52.0625 28.6875C52.0625 29.421 52.6571 30.0156 53.3906 30.0156C57.0523 30.0156 60.0312 32.9946 60.0312 36.6562V39.3125C60.0312 40.046 60.6259 40.6406 61.3594 40.6406C62.0929 40.6406 62.6875 40.046 62.6875 39.3125V36.6562C62.6875 31.53 58.5169 27.3594 53.3906 27.3594Z" fill="#F63150"/>
</svg>
