<svg width="64" height="64" viewBox="0 0 64 64" fill="none" xmlns="http://www.w3.org/2000/svg">
<path d="M30.395 21.3111L36.051 15.6551C36.6137 15.0925 37.3768 14.7764 38.1725 14.7764C38.9682 14.7764 39.7313 15.0925 40.294 15.6551C40.8567 16.2178 41.1728 16.9809 41.1728 17.7766C41.1728 18.1706 41.0952 18.5608 40.9444 18.9248C40.7936 19.2888 40.5726 19.6195 40.294 19.8981L34.637 25.5561C34.3583 25.8347 34.0274 26.0556 33.6633 26.2062C33.2992 26.3569 32.909 26.4344 32.5149 26.4342C32.1209 26.4341 31.7307 26.3563 31.3667 26.2054C31.0027 26.0545 30.672 25.8334 30.3935 25.5546C30.115 25.2759 29.8941 24.945 29.7434 24.5809C29.5927 24.2168 29.5153 23.8266 29.5154 23.4326C29.5155 23.0385 29.5933 22.6484 29.7442 22.2844C29.8951 21.9204 30.1163 21.5897 30.395 21.3111ZM38.879 17.0691C38.6889 16.8869 38.4358 16.7852 38.1725 16.7852C37.9092 16.7852 37.6561 16.8869 37.466 17.0691L31.809 22.7261C31.7162 22.819 31.6425 22.9293 31.5923 23.0507C31.5421 23.1721 31.5163 23.3021 31.5163 23.4335C31.5163 23.5648 31.5423 23.6949 31.5926 23.8162C31.6429 23.9375 31.7166 24.0478 31.8095 24.1406C31.9024 24.2335 32.0127 24.3071 32.1341 24.3573C32.2554 24.4075 32.3855 24.4334 32.5169 24.4333C32.6482 24.4333 32.7783 24.4074 32.8996 24.3571C33.0209 24.3067 33.1312 24.233 33.224 24.1401L38.88 18.4831C39.0672 18.2955 39.1724 18.0412 39.1724 17.7761C39.1724 17.511 39.0662 17.2568 38.879 17.0691Z" fill="#F63150"/>
<path d="M28.645 37.133C28.652 37.133 22.188 30.665 22.184 30.663C21.2536 29.7231 20.7318 28.454 20.7318 27.1315C20.7318 25.809 21.2536 24.5399 22.184 23.6L29.677 16.107L26.324 12.754C26.136 12.5668 25.8815 12.4616 25.6162 12.4614C25.3509 12.4612 25.0963 12.566 24.908 12.753L17.858 19.805C17.2943 20.3662 16.5312 20.6812 15.7358 20.681C14.9404 20.6808 14.1774 20.3655 13.614 19.804L12.204 18.394C11.6419 17.8307 11.3262 17.0673 11.3262 16.2715C11.3262 15.4757 11.6419 14.7124 12.204 14.149L21.374 4.97902C22.4998 3.85541 24.0254 3.22437 25.616 3.22437C27.2066 3.22437 28.7322 3.85541 29.858 4.97902L35.331 10.452C35.7806 9.91919 36.3354 9.48501 36.9607 9.17671C37.5859 8.86842 38.2682 8.69265 38.9646 8.66045C39.661 8.62824 40.3565 8.74029 41.0076 8.98956C41.6586 9.23884 42.2512 9.61996 42.748 10.109L46.378 13.739C46.865 14.2369 47.2443 14.8298 47.4923 15.4806C47.7403 16.1314 47.8517 16.8264 47.8195 17.5221C47.7874 18.2179 47.6123 18.8995 47.3053 19.5247C46.9983 20.1499 46.5659 20.7052 46.035 21.156L48.828 23.949C49.39 24.5122 49.7057 25.2754 49.7057 26.071C49.7057 26.8667 49.39 27.6298 48.828 28.193L47.418 29.604C46.8546 30.1656 46.0915 30.4809 45.296 30.4809C44.5005 30.4809 43.7374 30.1656 43.174 29.604L40.381 26.81L39.155 28.036L60.828 49.71C61.5768 50.4603 61.9973 51.477 61.9973 52.537C61.9973 53.597 61.5768 54.6137 60.828 55.364L56.678 59.514C55.9276 60.2626 54.9109 60.6829 53.851 60.6829C52.7911 60.6829 51.7744 60.2626 51.024 59.514C46.958 55.446 32.94 41.43 28.644 37.134L28.645 37.133ZM28.445 6.39302C27.6941 5.64429 26.6769 5.22385 25.6165 5.22385C24.5561 5.22385 23.5389 5.64429 22.788 6.39302L13.618 15.563C13.4304 15.7509 13.325 16.0055 13.325 16.271C13.325 16.5365 13.4304 16.7911 13.618 16.979L15.028 18.389C15.2161 18.5761 15.4707 18.6812 15.736 18.6812C16.0013 18.6812 16.2559 18.5761 16.444 18.389L23.494 11.338C24.0576 10.7767 24.8206 10.4615 25.616 10.4615C26.4114 10.4615 27.1744 10.7767 27.738 11.338L31.091 14.692L33.917 11.866L28.445 6.39302ZM44.587 28.19C44.7751 28.3771 45.0297 28.4822 45.295 28.4822C45.5603 28.4822 45.8149 28.3771 46.003 28.19L47.413 26.78C47.6003 26.592 47.7055 26.3374 47.7055 26.072C47.7055 25.8066 47.6003 25.552 47.413 25.364L44.62 22.572L41.794 25.397L44.587 28.19ZM52.437 58.1C52.812 58.4743 53.3202 58.6846 53.85 58.6846C54.3798 58.6846 54.888 58.4743 55.263 58.1L59.413 53.95C59.7873 53.575 59.9976 53.0669 59.9976 52.537C59.9976 52.0072 59.7873 51.499 59.413 51.124L37.033 28.744C36.847 28.5557 36.7427 28.3017 36.7427 28.037C36.7427 27.7723 36.847 27.5183 37.033 27.33L43.913 20.452L44.963 19.4C45.521 18.8343 45.8339 18.0716 45.8339 17.277C45.8339 16.4824 45.521 15.7197 44.963 15.154L41.333 11.524C40.7699 10.9611 40.0062 10.6449 39.21 10.6449C38.4138 10.6449 37.6501 10.9611 37.087 11.524L23.597 25.014C23.0388 25.5776 22.7257 26.3388 22.7257 27.132C22.7257 27.9252 23.0388 28.6864 23.597 29.25L29.355 35.009C29.7115 34.5682 30.1562 34.2067 30.6605 33.9477C31.1649 33.6887 31.7178 33.5379 32.2838 33.5051C32.8498 33.4722 33.4165 33.558 33.9474 33.7569C34.4783 33.9558 34.9619 34.2634 35.367 34.66L47.387 46.68C47.7842 47.085 48.0922 47.5687 48.291 48.0999C48.4898 48.6312 48.5751 49.1982 48.5414 49.7644C48.5077 50.3307 48.3556 50.8836 48.0952 51.3875C47.8347 51.8914 47.4715 52.3351 47.029 52.69L52.437 58.1ZM45.615 51.275C45.8682 51.1056 46.0814 50.883 46.2398 50.6228C46.3982 50.3625 46.4979 50.0708 46.532 49.7681C46.5661 49.4654 46.5337 49.1588 46.4372 48.8699C46.3406 48.5809 46.1822 48.3165 45.973 48.095L33.951 36.07C33.7299 35.8603 33.4658 35.7014 33.177 35.6043C32.8882 35.5071 32.5816 35.4742 32.2788 35.5077C31.9759 35.5412 31.684 35.6404 31.4235 35.7983C31.1629 35.9562 30.9399 36.1691 30.77 36.422L45.615 51.275ZM4.00099 37.96V29.776C4.00099 29.5108 4.10635 29.2564 4.29388 29.0689C4.48142 28.8814 4.73577 28.776 5.00099 28.776H13.001C13.2662 28.776 13.5206 28.8814 13.7081 29.0689C13.8956 29.2564 14.001 29.5108 14.001 29.776V37.961C14.5793 38.1708 15.079 38.5536 15.4321 39.0573C15.7853 39.5611 15.9747 40.1613 15.9747 40.7765C15.9747 41.3917 15.7853 41.992 15.4321 42.4957C15.079 42.9995 14.5793 43.3822 14.001 43.592V45.017C14.001 46.0125 14.3958 46.9674 15.0987 47.6722C15.8017 48.3771 16.7555 48.7744 17.751 48.777H20.185C20.3946 48.1984 20.7773 47.6983 21.2812 47.3449C21.785 46.9915 22.3855 46.8019 23.001 46.8019C23.6164 46.8019 24.2169 46.9915 24.7208 47.3449C25.2247 47.6983 25.6074 48.1984 25.817 48.777H34C34.2652 48.777 34.5196 48.8824 34.7071 49.0699C34.8946 49.2574 35 49.5118 35 49.777V57.777C35 58.0422 34.8946 58.2966 34.7071 58.4841C34.5196 58.6717 34.2652 58.777 34 58.777H25.816C25.6064 59.3557 25.2237 59.8557 24.7198 60.2091C24.2159 60.5625 23.6154 60.7521 23 60.7521C22.3845 60.7521 21.784 60.5625 21.2802 60.2091C20.7763 59.8557 20.3936 59.3557 20.184 58.777H17.75C15.8248 58.7615 13.9238 58.3468 12.1671 57.5591C10.4104 56.7714 8.8362 55.6279 7.54396 54.2008C6.25172 52.7737 5.26957 51.094 4.65957 49.268C4.04956 47.442 3.82497 45.5093 3.99999 43.592C3.42167 43.3822 2.92197 42.9995 2.56884 42.4957C2.21571 41.992 2.02626 41.3917 2.02626 40.7765C2.02626 40.1613 2.21571 39.5611 2.56884 39.0573C2.92197 38.5536 3.42167 38.1708 3.99999 37.961L4.00099 37.96ZM26.001 56.776H33.001V50.776H26.001V56.776ZM22.001 57.776C22.001 58.0412 22.1063 58.2956 22.2939 58.4831C22.4814 58.6707 22.7358 58.776 23.001 58.776C23.2662 58.776 23.5206 58.6707 23.7081 58.4831C23.8956 58.2956 24.001 58.0412 24.001 57.776V49.776C24.001 49.5108 23.8956 49.2564 23.7081 49.0689C23.5206 48.8814 23.2662 48.776 23.001 48.776C22.7358 48.776 22.4814 48.8814 22.2939 49.0689C22.1063 49.2564 22.001 49.5108 22.001 49.776V57.776ZM12.001 30.776H6.00099V37.776H12.001V30.776ZM17.751 56.776H20.001V50.776H17.751C16.2252 50.7731 14.7628 50.165 13.6848 49.0851C12.6068 48.0053 12.0013 46.5418 12.001 45.016V43.776H6.00099C5.84883 45.4161 6.03878 47.0699 6.5588 48.6328C7.07882 50.1957 7.9176 51.6336 9.02206 52.8555C10.1265 54.0775 11.4726 55.0569 12.9751 55.7317C14.4777 56.4066 16.1039 56.7622 17.751 56.776ZM5.00099 41.776C5.08399 41.774 13.029 41.778 13.001 41.776C13.2662 41.776 13.5206 41.6707 13.7081 41.4831C13.8956 41.2956 14.001 41.0412 14.001 40.776C14.001 40.5108 13.8956 40.2564 13.7081 40.0689C13.5206 39.8814 13.2662 39.776 13.001 39.776H5.00099C4.73577 39.776 4.48142 39.8814 4.29388 40.0689C4.10635 40.2564 4.00099 40.5108 4.00099 40.776C4.00099 41.0412 4.10635 41.2956 4.29388 41.4831C4.48142 41.6707 4.73577 41.776 5.00099 41.776Z" fill="#07122E"/>
</svg>
