<svg width="76" height="76" viewBox="0 0 76 76" fill="none" xmlns="http://www.w3.org/2000/svg">
<circle cx="38" cy="38" r="37.5" fill="white" stroke="white"/>
<path d="M24.6234 24.2319C24.3991 24.2387 24.1785 24.287 23.9747 24.3741C23.7709 24.4612 23.588 24.5853 23.437 24.739C23.2859 24.8927 23.1696 25.0729 23.0951 25.2689C23.0206 25.4649 22.9894 25.6728 23.0032 25.8802C23.2273 29.4377 24.284 38.1179 29.3432 43.5312C35.4015 50.0533 43.2914 52.3004 51.3862 51.9684C51.8201 51.9444 52.228 51.7688 52.5275 51.4772C52.827 51.1856 52.9959 50.7996 53 50.3972V44.6993C52.995 44.1677 52.7971 43.653 52.4383 43.238C52.0794 42.8229 51.5803 42.5316 51.0211 42.4106L46.9673 41.5806C46.466 41.4816 45.944 41.5242 45.4691 41.7028C44.9941 41.8815 44.588 42.1879 44.3032 42.5826L43.4067 43.8396C43.3243 43.9546 43.2013 44.0394 43.0587 44.0795C42.916 44.1195 42.7628 44.1122 42.6254 44.0589C40.5632 43.2348 32.3468 39.6773 31.4438 33.677C31.4261 33.5612 31.4459 33.443 31.5006 33.3375C31.5553 33.232 31.6425 33.1438 31.7512 33.0841L33.3778 32.1651C33.824 31.9091 34.1744 31.5324 34.3818 31.0859C34.5891 30.6395 34.6433 30.1448 34.537 29.6689L33.6468 25.8506C33.5167 25.3156 33.1903 24.8389 32.7232 24.5016C32.2562 24.1643 31.6773 23.9873 31.0852 24.0007L24.6234 24.2319Z" fill="#F63150"/>
</svg>
