<svg width="73" height="73" viewBox="0 0 73 73" fill="none" xmlns="http://www.w3.org/2000/svg">
<circle cx="36.4252" cy="36.4999" r="36.4252" fill="#F63150"/>
<path d="M34.2686 25.8245C34.7697 25.8245 35.1991 26.0034 35.557 26.3613C35.8433 26.7192 35.9865 27.1486 35.9865 27.6497C35.9865 28.2223 35.8791 28.7949 35.6644 29.3675L29.974 44.0767C29.6161 44.7925 29.2582 45.3651 28.9003 45.7945C28.4709 46.2956 27.7909 46.5461 26.8604 46.5461L23.3173 46.5461C22.7447 46.5461 22.3152 46.3314 22.0289 45.9019C21.671 45.4724 21.5636 44.8998 21.7068 44.184L24.0689 28.9381C24.1404 28.0791 24.4267 27.3276 24.9278 26.6834C25.4288 26.1108 26.1804 25.8245 27.1825 25.8245L34.2686 25.8245ZM51.4472 25.8245C51.9482 25.8245 52.3777 26.0034 52.7356 26.3613C53.0219 26.7192 53.165 27.1486 53.165 27.6497C53.165 28.2223 53.0577 28.7949 52.8429 29.3675L47.1525 44.0767C46.7946 44.7925 46.401 45.3651 45.9715 45.7945C45.542 46.2956 44.8979 46.5461 44.0389 46.5461H40.4958C39.9232 46.5461 39.4938 46.3314 39.2075 45.9019C38.8496 45.4724 38.7422 44.8998 38.8854 44.184L41.2474 28.9381C41.319 28.0792 41.6053 27.3276 42.1063 26.6834C42.6074 26.1108 43.3232 25.8245 44.2537 25.8245L51.4472 25.8245Z" fill="#F9FAFC"/>
</svg>
