<svg width="192" height="242" viewBox="0 0 192 242" fill="none" xmlns="http://www.w3.org/2000/svg">
<g opacity="0.4">
<path d="M114.931 80.5823L136.318 59.1956C138.445 57.068 141.331 55.8728 144.34 55.8728C147.349 55.8728 150.234 57.068 152.362 59.1956C154.489 61.3231 155.685 64.2087 155.685 67.2175C155.685 68.7073 155.391 70.1825 154.821 71.5589C154.251 72.9354 153.415 74.186 152.362 75.2394L130.971 96.6337C129.917 97.687 128.666 98.5223 127.289 99.092C125.913 99.6617 124.437 99.9546 122.947 99.9541C121.457 99.9536 119.982 99.6596 118.606 99.0889C117.229 98.5182 115.979 97.682 114.925 96.6281C113.872 95.5741 113.037 94.323 112.467 92.9463C111.898 91.5695 111.605 90.094 111.605 88.604C111.606 87.114 111.9 85.6388 112.47 84.2624C113.041 82.886 113.877 81.6355 114.931 80.5823ZM147.011 64.5423C146.293 63.8534 145.335 63.4687 144.34 63.4687C143.344 63.4687 142.387 63.8534 141.668 64.5423L120.278 85.9328C119.927 86.2841 119.648 86.7011 119.458 87.1601C119.269 87.619 119.171 88.1108 119.171 88.6075C119.171 89.1041 119.269 89.5959 119.459 90.0547C119.65 90.5135 119.928 90.9303 120.28 91.2814C120.631 91.6325 121.048 91.9109 121.507 92.1008C121.966 92.2907 122.458 92.3883 122.954 92.3882C123.451 92.388 123.943 92.29 124.402 92.0998C124.86 91.9095 125.277 91.6308 125.628 91.2795L147.015 69.889C147.723 69.1794 148.121 68.218 148.121 67.2156C148.121 66.2133 147.719 65.2519 147.011 64.5423Z" fill="#F9FAFC"/>
<path d="M108.314 140.409C108.34 140.409 83.8983 115.952 83.8832 115.945C80.3653 112.39 78.3919 107.592 78.3919 102.591C78.3919 97.5903 80.3653 92.7916 83.8832 89.2376L112.216 60.9047L99.5376 48.2261C98.8268 47.5181 97.8646 47.1203 96.8613 47.1196C95.858 47.1189 94.8952 47.5154 94.1834 48.2224L67.5256 74.8877C65.394 77.0097 62.5086 78.2007 59.501 78.2C56.4933 78.1993 53.6084 77.0069 51.4779 74.884L46.1464 69.5524C44.0209 67.4222 42.8272 64.5359 42.8272 61.5267C42.8272 58.5175 44.0209 55.6312 46.1464 53.501L80.8204 18.8269C85.0774 14.5783 90.8461 12.1921 96.8605 12.1921C102.875 12.1921 108.644 14.5783 112.901 18.8269L133.595 39.5217C135.295 37.5069 137.393 35.8652 139.758 34.6995C142.122 33.5337 144.702 32.8691 147.335 32.7473C149.968 32.6256 152.598 33.0492 155.06 33.9918C157.522 34.9344 159.762 36.3755 161.641 38.2247L175.367 51.9507C177.208 53.8334 178.643 56.075 179.58 58.536C180.518 60.997 180.939 63.6247 180.818 66.2555C180.696 68.8863 180.034 71.4639 178.873 73.8278C177.712 76.1918 176.077 78.2915 174.07 79.9962L184.631 90.5572C186.756 92.6868 187.95 95.5725 187.95 98.581C187.95 101.59 186.756 104.475 184.631 106.605L179.299 111.94C177.169 114.064 174.283 115.256 171.275 115.256C168.268 115.256 165.382 114.064 163.252 111.94L152.691 101.375L148.055 106.011L230.006 187.966C232.837 190.803 234.427 194.647 234.427 198.656C234.427 202.664 232.837 206.508 230.006 209.345L214.314 225.037C211.476 227.868 207.632 229.457 203.624 229.457C199.616 229.457 195.772 227.868 192.934 225.037C177.56 209.655 124.554 156.657 108.31 140.413L108.314 140.409ZM107.558 24.1736C104.718 21.3425 100.872 19.7527 96.8624 19.7527C92.8527 19.7527 89.0066 21.3425 86.1671 24.1736L51.4931 58.8477C50.7837 59.5581 50.3853 60.5209 50.3853 61.5248C50.3853 62.5287 50.7837 63.4915 51.4931 64.2019L56.8246 69.5335C57.536 70.241 58.4985 70.6381 59.5017 70.6381C60.505 70.6381 61.4675 70.241 62.1789 69.5335L88.8367 42.8719C90.9677 40.7494 93.8528 39.5577 96.8605 39.5577C99.8682 39.5577 102.753 40.7494 104.884 42.8719L117.563 55.5542L128.249 44.8684L107.558 24.1736ZM168.595 106.594C169.306 107.301 170.268 107.698 171.272 107.698C172.275 107.698 173.237 107.301 173.949 106.594L179.28 101.262C179.989 100.551 180.387 99.5884 180.387 98.5848C180.387 97.5813 179.989 96.6186 179.28 95.9077L168.719 85.3505L158.034 96.0325L168.595 106.594ZM198.277 219.691C199.695 221.106 201.617 221.901 203.62 221.901C205.624 221.901 207.545 221.106 208.963 219.691L224.655 203.999C226.071 202.581 226.866 200.659 226.866 198.656C226.866 196.652 226.071 194.731 224.655 193.313L140.031 108.688C139.328 107.976 138.933 107.016 138.933 106.015C138.933 105.014 139.328 104.054 140.031 103.342L166.046 77.3342L170.016 73.3563C172.126 71.2173 173.31 68.3334 173.31 65.3287C173.31 62.324 172.126 59.4402 170.016 57.3011L156.29 43.5752C154.161 41.4467 151.274 40.251 148.263 40.251C145.252 40.251 142.365 41.4467 140.235 43.5752L89.2261 94.5843C87.1156 96.7155 85.9317 99.5936 85.9317 102.593C85.9317 105.592 87.1156 108.47 89.2261 110.602L110.999 132.378C112.347 130.711 114.028 129.344 115.935 128.365C117.842 127.385 119.933 126.815 122.073 126.691C124.213 126.567 126.356 126.891 128.364 127.643C130.371 128.395 132.2 129.558 133.731 131.058L179.182 176.509C180.684 178.04 181.848 179.869 182.6 181.878C183.352 183.887 183.675 186.031 183.547 188.172C183.42 190.313 182.845 192.404 181.86 194.309C180.875 196.214 179.502 197.892 177.828 199.234L198.277 219.691ZM172.482 193.884C173.439 193.243 174.245 192.401 174.844 191.417C175.443 190.433 175.82 189.33 175.949 188.186C176.078 187.041 175.956 185.882 175.591 184.789C175.225 183.697 174.627 182.697 173.835 181.859L128.377 136.39C127.541 135.597 126.542 134.996 125.45 134.629C124.358 134.261 123.199 134.137 122.054 134.263C120.909 134.39 119.805 134.765 118.82 135.362C117.835 135.959 116.991 136.764 116.349 137.721L172.482 193.884ZM15.1288 143.536V112.591C15.1288 111.588 15.5271 110.626 16.2363 109.917C16.9454 109.208 17.9072 108.809 18.91 108.809H49.16C50.1629 108.809 51.1246 109.208 51.8338 109.917C52.5429 110.626 52.9413 111.588 52.9413 112.591V143.54C55.128 144.333 57.0175 145.781 58.3528 147.685C59.6881 149.59 60.4045 151.86 60.4045 154.186C60.4045 156.512 59.6881 158.782 58.3528 160.687C57.0175 162.592 55.128 164.039 52.9413 164.832V170.221C52.9413 173.985 54.434 177.595 57.0921 180.261C59.7502 182.926 63.3568 184.428 67.121 184.438H76.3245C77.117 182.25 78.5643 180.359 80.4695 179.023C82.3747 177.687 84.6454 176.97 86.9725 176.97C89.2997 176.97 91.5703 177.687 93.4755 179.023C95.3808 180.359 96.8281 182.25 97.6205 184.438H128.562C129.565 184.438 130.527 184.837 131.236 185.546C131.945 186.255 132.344 187.217 132.344 188.219V218.469C132.344 219.472 131.945 220.434 131.236 221.143C130.527 221.852 129.565 222.251 128.562 222.251H97.6167C96.8243 224.439 95.377 226.329 93.4718 227.666C91.5665 229.002 89.2959 229.719 86.9687 229.719C84.6416 229.719 82.371 229.002 80.4657 227.666C78.5605 226.329 77.1132 224.439 76.3207 222.251H67.1172C59.8377 222.192 52.6495 220.624 46.0069 217.645C39.3644 214.667 33.4119 210.343 28.5256 204.947C23.6393 199.55 19.9256 193.199 17.619 186.295C15.3124 179.39 14.4632 172.082 15.125 164.832C12.9382 164.039 11.0487 162.592 9.71344 160.687C8.37814 158.782 7.6618 156.512 7.6618 154.186C7.6618 151.86 8.37814 149.59 9.71344 147.685C11.0487 145.781 12.9382 144.333 15.125 143.54L15.1288 143.536ZM98.3163 214.684H124.785V191.997H98.3163V214.684ZM83.1913 218.466C83.1913 219.468 83.5896 220.43 84.2988 221.139C85.0079 221.848 85.9697 222.247 86.9725 222.247C87.9754 222.247 88.9371 221.848 89.6463 221.139C90.3554 220.43 90.7538 219.468 90.7538 218.466V188.216C90.7538 187.213 90.3554 186.251 89.6463 185.542C88.9371 184.833 87.9754 184.434 86.9725 184.434C85.9697 184.434 85.0079 184.833 84.2988 185.542C83.5896 186.251 83.1913 187.213 83.1913 188.216V218.466ZM45.3788 116.372H22.6913V142.841H45.3788V116.372ZM67.121 214.684H75.6288V191.997H67.121C61.3514 191.986 55.8219 189.686 51.7457 185.603C47.6696 181.52 45.3797 175.986 45.3788 170.217V165.528H22.6913C22.1159 171.73 22.8341 177.983 24.8005 183.893C26.7668 189.802 29.9384 195.239 34.1147 199.86C38.2909 204.481 43.3808 208.184 49.0623 210.736C54.7437 213.287 60.893 214.632 67.121 214.684ZM18.91 157.966C19.2238 157.958 49.2659 157.973 49.16 157.966C50.1629 157.966 51.1246 157.567 51.8338 156.858C52.5429 156.149 52.9413 155.187 52.9413 154.184C52.9413 153.181 52.5429 152.22 51.8338 151.511C51.1246 150.801 50.1629 150.403 49.16 150.403H18.91C17.9072 150.403 16.9454 150.801 16.2363 151.511C15.5271 152.22 15.1288 153.181 15.1288 154.184C15.1288 155.187 15.5271 156.149 16.2363 156.858C16.9454 157.567 17.9072 157.966 18.91 157.966Z" fill="#F9FAFC"/>
</g>
</svg>
