<svg width="53" height="22" viewBox="0 0 53 22" fill="none" xmlns="http://www.w3.org/2000/svg">
<g clip-path="url(#clip0_232_51)">
<path fill-rule="evenodd" clip-rule="evenodd" d="M1.27784 18.3504C1.28749 18.2638 1.30669 18.1772 1.32598 18.1002L1.38369 17.7826C1.39334 17.7345 1.39334 17.6767 1.41259 17.619C1.42219 17.5709 1.43179 17.5324 1.44144 17.4939C1.45109 17.4073 1.47029 17.3207 1.47994 17.2244C1.48958 17.1378 1.51844 17.0512 1.52808 16.9838C1.52808 16.9261 1.61473 16.4353 1.63393 16.3968C1.63393 16.3198 1.74947 15.598 1.76868 15.5594C1.77833 15.4247 1.82639 15.2707 1.83603 15.136C1.84568 14.9819 1.90343 14.7798 1.92268 14.6259C1.93232 14.4911 1.97082 14.3179 1.99007 14.1831C1.99972 14.1061 2.00928 14.0484 2.02857 13.9618C2.03822 13.904 2.05747 13.8463 2.05747 13.7693C2.08632 13.6731 2.09597 13.4902 2.12482 13.4132C2.13447 13.2688 2.17297 13.1244 2.19221 12.9801C2.20182 12.9223 2.21142 12.8838 2.22107 12.8165C2.23071 12.7683 2.22107 12.7298 2.24996 12.7106C2.24996 12.5855 2.29807 12.4603 2.29807 12.3545C2.32696 12.1909 2.36546 12.0176 2.38471 11.854C2.40396 11.7385 2.42321 11.6326 2.44246 11.5171C2.45206 11.4786 2.46167 11.392 2.47131 11.3535C2.48096 11.2958 2.49056 11.2765 2.49056 11.2188C2.50017 11.1322 2.51941 11.0456 2.53866 10.9589C2.54831 10.8916 2.57716 10.7857 2.57716 10.728C2.59641 10.6317 2.61571 10.5259 2.62531 10.4392C2.63495 10.2467 2.71195 10.0543 2.71195 9.85216C2.73116 9.80402 2.7601 9.64042 2.7601 9.59227C2.77931 9.49603 2.7986 9.39017 2.80824 9.30353L2.89489 8.77419C2.90449 8.73569 2.90449 8.72604 2.90449 8.68754C2.90449 8.66829 2.90449 8.66829 2.91414 8.64904L2.92378 8.62979C2.92378 8.48544 2.97189 8.3122 2.99114 8.17745C2.99114 8.11975 3.03928 7.84061 3.05853 7.81171C3.05853 7.68661 3.09703 7.63851 3.09703 7.52297C3.10668 7.47482 3.14517 7.30162 3.14517 7.24387C3.14517 7.17652 3.16438 7.14766 3.17403 7.08027L3.25103 6.67603C3.25103 6.55093 3.27028 6.49313 3.28957 6.37764C3.29917 6.33914 3.32807 6.15625 3.33767 6.10819C3.34732 6.02154 3.36657 5.96379 3.37617 5.86759C3.38582 5.80019 3.46281 5.26121 3.49171 5.23235C3.49171 5.14571 3.50131 5.1265 3.52056 5.0495C3.53021 4.98211 3.56871 4.64526 3.5976 4.61637C3.5976 4.51052 3.61681 4.43352 3.6361 4.32762C3.65531 4.23138 3.65531 4.16402 3.68421 4.08703L3.7901 3.48069C3.7901 3.40364 3.87674 2.88395 3.89595 2.8551C3.89595 2.76845 3.97295 2.3065 4.0018 2.24876C4.0018 2.18136 4.04995 1.88301 4.0692 1.84447C4.0692 1.75787 4.09805 1.60392 4.11734 1.51727C4.11734 1.45952 4.24244 0.747332 4.25205 0.70879C4.25205 0.574086 4.30019 0.410443 4.31944 0.275696C4.31944 0.198698 4.32904 0.217948 4.33865 0.160156H25.2718L25.1756 0.795349C25.1564 0.891597 25.1852 0.833848 25.1371 0.872348L25.1467 0.920493C25.1179 1.06484 25.0409 1.70008 24.9927 1.76743C25.0024 1.85408 24.9157 2.43152 24.8772 2.48927C24.8869 2.58547 24.8002 3.06676 24.7714 3.18221L24.7136 3.50945L24.5308 4.51043C24.5404 4.57778 24.4538 5.10712 24.4249 5.15527C24.4345 5.29962 24.3768 5.52101 24.3479 5.67501L24.2613 6.18506C24.2516 6.20431 24.2516 6.20431 24.2516 6.2236L24.242 6.25245C24.2516 6.32945 24.2324 6.51234 24.1843 6.57005C24.1939 6.6759 24.1458 6.87804 24.1265 6.98389C24.1073 7.09939 24.0303 7.65758 23.9918 7.70569C24.0014 7.79233 23.9341 8.25428 23.8859 8.31207C23.8956 8.36017 23.8474 8.75477 23.7993 8.81252C23.8185 8.93762 23.7031 9.40925 23.6838 9.58246C23.6549 9.68835 23.6453 9.80385 23.6261 9.9097L23.5587 10.2465C23.5683 10.2947 23.5105 10.7855 23.4528 10.8625C23.472 10.9395 23.4432 11.1224 23.3951 11.1801C23.4047 11.2667 23.3759 11.363 23.3662 11.4592L23.2604 11.9886C23.27 12.0559 23.2411 12.2773 23.2026 12.3254C23.2123 12.4216 23.1641 12.7585 23.116 12.8259C23.1256 12.9221 23.0968 13.028 23.0775 13.1242C23.0678 13.1916 23.0486 13.3648 23.0101 13.413C23.0197 13.4707 23.0101 13.5189 23.0005 13.5766C23.0005 13.6055 22.9908 13.6343 22.9813 13.6633C22.9716 13.721 22.9813 13.6921 22.9524 13.7306C22.962 13.798 22.9524 13.8365 22.9427 13.8942C22.9427 13.9135 22.9331 13.952 22.9331 13.9713C22.9235 14.029 22.9331 14.0001 22.9042 14.0386L22.8465 14.491C22.808 14.6065 22.885 14.3947 22.8369 14.5198C22.8369 14.5198 22.8272 14.5391 22.8272 14.5295C22.8272 14.5295 22.8272 14.5391 22.8176 14.5391C22.8272 14.5968 22.8176 14.645 22.808 14.7027L22.7695 14.8471C22.7887 14.9241 22.7213 15.3283 22.6828 15.3861C22.6925 15.4823 22.6251 15.9346 22.577 15.9924C22.5866 16.0886 22.5385 16.4447 22.4903 16.5025C22.5 16.5795 22.4807 16.7527 22.4422 16.8105C22.4519 16.8971 22.423 17.003 22.4037 17.0992L22.3363 17.5227C22.3267 17.5901 22.2882 17.8596 22.2593 17.9173C22.2786 18.0136 22.2401 18.1387 22.2208 18.2445C22.2016 18.3408 22.2016 18.4755 22.1535 18.5429C22.1631 18.6296 22.1342 18.7258 22.1246 18.8124C22.1149 18.8894 22.1054 19.0049 22.0669 19.053C22.0861 19.1685 22.0187 19.4091 21.9995 19.5342C21.9802 19.6593 21.9803 19.8903 21.9128 19.9769C21.9225 20.0732 21.8743 20.4293 21.8262 20.487C21.8358 20.5737 21.7588 21.0549 21.7203 21.103C21.73 21.2185 21.6626 21.5361 21.6433 21.6708C21.6241 21.8152 21.6529 21.8344 21.5086 21.844H3.4145V21.8344C2.83701 21.8344 2.25957 21.8344 1.69173 21.844H0.661896C0.671499 21.767 0.690749 21.6804 0.710041 21.5938L0.787039 21.0933C0.796643 21.0548 0.815892 20.8816 0.835185 20.8624C0.835185 20.8046 0.902537 20.3619 0.921829 20.333C0.921829 20.2656 0.941036 20.1694 0.950682 20.1116C1.16243 18.8797 0.998827 19.948 1.24907 18.3215L1.27792 18.3503L1.27784 18.3504ZM5.66657 20.0251H8.91966C9.93024 15.0492 11.2777 7.11868 12.1728 1.91187L8.9486 1.91182C8.9871 3.05711 5.82065 19.1685 5.67626 20.0348L5.66661 20.0251H5.66657ZM13.8088 14.7605C13.78 14.8279 13.7703 14.953 13.7607 15.0396C13.7511 15.1262 13.7126 15.2321 13.7126 15.3284C13.7126 15.3861 13.6837 15.4631 13.6741 15.5209C13.6644 15.5882 13.6452 15.6749 13.6356 15.7518C13.6163 15.7807 13.5682 16.0791 13.5682 16.1465C13.5393 16.185 13.4623 16.6758 13.4623 16.7624L13.3565 17.3014C13.3372 17.4458 13.2891 17.5613 13.3083 17.7441C13.3372 18.0328 13.5874 18.2157 13.8954 18.1676C14.1264 18.129 14.1071 18.1098 14.2611 18.0232C14.3189 17.927 14.5499 17.7345 14.5306 17.5805C14.5691 17.5228 14.6365 17.08 14.6461 17.0127C14.675 16.8876 14.752 16.5026 14.7424 16.4063L14.752 16.3774C14.752 16.3678 14.829 16.1465 14.8097 16.0117L14.8386 15.9154C14.8482 15.8866 14.8482 15.8481 14.8578 15.8096C14.8674 15.7422 14.8963 15.6652 14.877 15.5978C14.8867 15.5786 14.8867 15.5978 14.8962 15.5593L14.9155 15.4727C14.9251 15.4053 14.9251 15.4053 14.9251 15.3476C14.9732 15.2899 14.9925 15.03 15.0117 14.9338C15.031 14.8086 15.0984 14.5392 15.0887 14.4333L15.1561 14.1445C15.1753 14.0387 15.2043 13.9328 15.1946 13.8366C15.2235 13.7981 15.2235 13.7403 15.2138 13.6826C15.3005 13.5478 15.1657 13.0281 15.1176 12.8837C15.0695 12.749 14.8192 12.3447 14.7423 12.3062C14.723 12.2581 14.5113 11.9694 14.4632 11.9405C14.4439 11.8828 14.4632 11.9309 14.4247 11.8828L14.1552 11.546L14.0878 11.4401C14.0012 11.3342 13.597 10.8049 13.5585 10.7952C13.5393 10.7279 13.3756 10.5353 13.3179 10.468C13.2698 10.4103 13.1062 10.1792 13.0676 10.16C13.0484 10.1215 12.8174 9.79429 12.7789 9.77504C12.7307 9.65954 12.6442 9.55365 12.5768 9.43819C12.5479 9.39005 12.5094 9.32269 12.4805 9.2553C12.4613 9.2072 12.4324 9.11095 12.4035 9.07245C12.365 8.85106 12.3458 8.74521 12.3554 8.50461L12.442 7.88866L12.5864 7.08018C12.6153 6.94548 12.6923 6.59899 12.6731 6.48349C12.7212 6.41609 12.7597 6.10814 12.7597 6.01185C12.7982 5.96371 12.8752 5.47287 12.8656 5.40551C12.9329 5.29962 12.9618 4.84728 13.0099 4.68368C13.0291 4.54897 13.1062 4.25058 13.0966 4.13513C13.1158 4.11592 13.1062 4.13513 13.1158 4.09663L13.1543 3.93303C13.1735 3.86563 13.2024 3.78864 13.1928 3.72128C13.2217 3.68278 13.212 3.70203 13.2313 3.64424C13.2409 3.61539 13.2505 3.59614 13.2602 3.56724C13.2794 3.50954 13.2987 3.47104 13.2987 3.40364C13.3468 3.3555 13.4046 3.1919 13.4334 3.1149L13.5874 2.82616C13.6355 2.79726 13.6837 2.72026 13.7221 2.67216C13.7703 2.60477 13.8088 2.57591 13.8665 2.52777C13.9146 2.48927 14.1841 2.30642 14.1937 2.28717C14.2804 2.25832 14.3766 2.19096 14.4728 2.15246C14.5691 2.11392 14.6557 2.07542 14.7616 2.04657C14.983 1.97922 15.1754 1.95037 15.416 1.93107C16.0994 1.91187 16.802 1.93107 17.4949 1.93107C18.159 1.93107 18.7846 1.98878 19.1407 2.37377C19.2177 2.45077 19.3813 2.67216 19.4295 2.80691C19.468 2.9224 19.5161 3.00901 19.545 3.13415C19.5738 3.26885 19.5835 3.394 19.5835 3.5576C19.5835 3.61535 19.5738 3.72124 19.5642 3.7982C19.5546 3.87519 19.5354 3.97144 19.5354 4.05809C19.5257 4.14473 19.4969 4.25058 19.4872 4.33718C19.4776 4.43343 19.4583 4.56818 19.4295 4.64518C19.4295 4.71253 19.4006 4.81842 19.391 4.89542C19.3718 4.99163 19.3525 5.08792 19.3429 5.17452C19.3332 5.20337 19.2947 5.42476 19.2947 5.46326C19.2851 5.53066 19.2659 5.60761 19.2466 5.69421C19.2274 5.79046 19.2081 5.87711 19.2081 5.97331C19.1792 6.05996 19.1696 6.17545 19.1504 6.2813C19.1312 6.40641 19.1119 6.5027 19.0927 6.61815C19.0927 6.68555 19.0542 6.8491 19.0445 6.90689C19.0349 6.96464 19.0349 6.98389 19.0253 7.05129C19.0157 7.09939 18.9964 7.15714 18.9964 7.22449C18.9868 7.29189 18.9676 7.37849 18.9483 7.45549C18.9291 7.54213 18.9098 7.63834 18.9098 7.71533C18.9002 7.77308 18.8809 7.85008 18.8617 7.92708L16.2919 7.93672C16.2919 7.75388 16.4074 7.42663 16.3978 7.25334C16.4459 7.19564 16.494 6.82985 16.4844 6.74329C16.5036 6.7144 16.494 6.74329 16.5036 6.69515L16.5806 6.18506C16.6384 6.11766 16.6865 5.56911 16.725 5.44397C16.7442 5.30922 16.802 5.10712 16.7924 4.98198C16.8309 4.92427 16.8309 4.77988 16.8597 4.71253L16.8694 4.61628L16.8982 4.49118C16.9753 4.11584 16.8309 3.78859 16.4363 3.78859C16.1187 3.78859 15.7914 3.98109 15.6952 4.25058C15.676 4.29873 15.676 4.32758 15.6567 4.36608C15.6375 4.46233 15.6086 4.59707 15.6086 4.69332C15.5894 4.77997 15.5797 4.83767 15.5604 4.93392C15.5412 5.03017 15.5219 5.10717 15.5219 5.21302L15.4834 5.35737L15.4545 5.53061C15.4353 5.65571 15.4064 5.77121 15.3968 5.88675C15.368 5.90596 15.3776 5.96375 15.368 6.01185C15.3583 6.07921 15.3487 6.0985 15.3391 6.1562C15.3294 6.24285 15.2909 6.36795 15.2909 6.45459C15.2717 6.53159 15.2621 6.59894 15.2428 6.69519C15.2236 6.7914 15.2043 6.86844 15.2043 6.97429C15.1754 7.01279 15.1369 7.29189 15.1273 7.38813C15.1176 7.45549 15.0984 7.72498 15.1176 7.79237C15.1369 7.85008 15.0984 7.81158 15.1465 7.84052C15.0984 7.97522 15.2716 8.31211 15.3486 8.44686C15.3968 8.52386 15.339 8.47571 15.416 8.51425C15.4064 8.56236 15.4064 8.52386 15.416 8.56236C15.416 8.58161 15.4352 8.60086 15.4449 8.62011L15.9069 9.2457C15.9454 9.27455 15.878 9.2457 15.9454 9.27455C15.9454 9.33225 16.1763 9.60179 16.2245 9.64029L16.571 10.0445C16.571 10.0542 16.5517 10.0542 16.5998 10.1215L17.0329 10.6605L17.2735 10.9589C17.3409 11.0456 17.312 11.0263 17.3698 11.0552C17.3794 11.1129 17.5141 11.2765 17.5526 11.3439C17.6296 11.4594 17.697 11.623 17.7547 11.6518C17.7355 11.7096 17.7451 11.6711 17.7739 11.7385C17.7932 11.7674 17.7932 11.777 17.8124 11.8251L17.9375 12.1812C17.9761 12.3256 17.9472 12.3352 17.9953 12.3738C17.9472 12.4893 17.9761 12.6625 17.9761 12.7876C17.9664 12.8646 17.9568 12.8838 17.9568 12.9801C17.9376 13.009 17.8702 13.4806 17.8702 13.5576C17.8413 13.5865 17.8702 13.548 17.851 13.5961C17.851 13.6057 17.8413 13.6634 17.8413 13.6634C17.8317 13.7308 17.8221 13.7693 17.8221 13.827C17.8029 13.8655 17.7355 14.2602 17.7355 14.3179C17.7163 14.3949 17.697 14.5104 17.6873 14.6067C17.6777 14.7125 17.6392 14.8088 17.6392 14.9339C17.62 14.9531 17.62 15.0013 17.6103 15.0398C17.6007 15.0975 17.6007 15.1264 17.5911 15.1745C17.5719 15.2707 17.5622 15.3766 17.543 15.4633C17.543 15.5595 17.4949 15.6942 17.4949 15.8097C17.4756 15.8386 17.4467 16.0311 17.4467 16.0888C17.4275 16.2236 17.389 16.3583 17.3794 16.5027C17.3601 16.5508 17.312 16.8395 17.312 16.9165C17.2831 16.9357 17.2831 17.0127 17.2831 17.0512C17.2735 17.1186 17.2639 17.1474 17.2542 17.2148C17.235 17.3303 17.2061 17.4554 17.1965 17.5709C17.1773 17.6191 17.158 17.7249 17.1484 17.7827C17.1292 17.8501 17.1002 17.9559 17.0907 18.0329L16.927 18.4949C16.8404 18.7067 16.7345 18.8318 16.6961 18.928C16.6769 18.9377 16.5613 19.1013 16.5325 19.1398C16.494 19.1879 16.4843 19.1975 16.4458 19.2456L16.34 19.3611C16.263 19.467 15.955 19.6884 15.8106 19.7461C15.7336 19.775 15.6662 19.7942 15.5892 19.8423C15.5026 19.852 15.1657 19.9674 14.8578 19.9771L14.0012 19.9963C13.8376 19.9963 13.7317 20.0155 13.5874 20.0155L12.4709 20.0156C12.3651 20.0156 12.3458 19.9964 12.2495 19.9964C12.2014 19.9964 12.0667 19.9675 12.009 19.9579C11.9704 19.9483 11.9416 19.9483 11.8934 19.9387C11.8453 19.929 11.8261 19.9098 11.7683 19.9098C11.4315 19.8328 11.3352 19.7173 11.162 19.5922C11.1331 19.573 11.1524 19.5826 11.1331 19.573C11.1043 19.5248 11.1331 19.5633 11.0946 19.5152C11.085 19.496 11.0754 19.496 11.0658 19.4767L10.7385 18.8608C10.7289 18.7741 10.7 18.6972 10.6904 18.6105C10.6807 18.5143 10.7 18.4277 10.6807 18.3411C10.7096 18.2833 10.7481 17.8406 10.7578 17.7347C10.777 17.5807 10.854 17.2631 10.8444 17.138C10.8829 17.0803 10.9118 16.8781 10.9021 16.8108L10.9118 16.7819C10.9118 16.7819 10.9984 16.4643 10.9791 16.3392C11.0176 16.291 11.1139 15.7232 11.1042 15.6366L11.1427 15.4922C11.1524 15.4248 11.1716 15.3864 11.1524 15.3286L11.1716 15.2709C11.1716 15.2613 11.1812 15.2227 11.1812 15.2132C11.1909 15.1747 11.1909 15.1362 11.2004 15.0976C11.2101 15.0206 11.239 14.934 11.2293 14.8571C11.2775 14.7897 11.3255 14.4721 11.316 14.3759C11.3545 14.3181 11.4315 13.7791 11.4507 13.6636C11.5084 13.6155 12.6634 13.6444 12.7307 13.6444H14.0397L13.9435 14.2123L13.905 14.4336C13.8857 14.5395 13.8473 14.6453 13.8473 14.7608H13.8087L13.8088 14.7605Z" fill="#6E7E98"/>
<path fill-rule="evenodd" clip-rule="evenodd" d="M32.962 8.52411L33.039 9.73683C33.0486 9.80422 33.0486 9.85233 33.0486 9.94858C33.0486 10.0448 33.0678 10.0544 33.0678 10.1507C33.0678 10.4202 33.116 10.6993 33.116 10.9784L33.1448 11.373C33.164 11.5174 33.164 11.6521 33.164 11.7965C33.164 11.912 33.1929 12.0756 33.2025 12.1911L33.2314 12.7878C33.2314 12.884 33.2506 12.9033 33.2506 12.9899L33.2988 13.8176C33.2988 13.9139 33.318 13.9235 33.318 14.0197C33.318 14.2603 33.3469 14.3758 33.3469 14.6357L33.3854 15.0495L31.6723 15.0495L31.9899 13.4133C32.038 13.1342 32.1054 12.8743 32.1535 12.5952C32.1727 12.4605 32.2016 12.3354 32.2305 12.191C32.2593 12.0466 32.2882 11.9215 32.3075 11.7771L32.6251 10.141C32.6828 9.87153 32.7213 9.59244 32.7887 9.3229L32.9042 8.71652C32.9138 8.67802 32.9138 8.66841 32.9234 8.61067L32.9523 8.50481L32.9619 8.52402L32.962 8.52411ZM42.24 11.3922H40.5749C40.5075 11.3922 40.5364 11.3345 40.5364 11.2575L40.7289 8.20651C40.7289 8.11026 40.7481 8.10066 40.7481 8.01401L40.8059 6.99383C40.8155 6.92643 40.8155 6.86873 40.8155 6.79169C40.8155 6.61848 40.8636 6.18535 40.8636 5.98325C40.8636 5.88704 40.8828 5.86775 40.8828 5.78115L40.9021 5.36731C40.9117 5.25181 40.9309 5.07856 40.9309 4.95346H42.7115C43.2023 4.95346 43.0579 5.3192 43.0579 5.70419L42.8366 9.14974C42.8366 9.22674 42.8462 9.29409 42.8366 9.37113C42.7884 9.80422 42.7884 10.3625 42.7403 10.7859C42.7115 11.0458 42.8173 11.3826 42.2399 11.3826V11.3923L42.24 11.3922ZM30.5943 20.3622C30.6328 20.1794 30.6713 19.9772 30.7098 19.7944C30.7483 19.5922 30.7869 19.4094 30.8254 19.2073C30.8639 19.0148 30.9024 18.8223 30.9409 18.6202C30.9794 18.4277 31.0179 18.2256 31.066 18.0427L33.6068 18.0427C33.6068 18.2063 33.6549 18.4662 33.6549 18.6298C33.6646 18.9185 33.7127 19.2168 33.7223 19.5056C33.732 19.6981 33.7705 19.9002 33.7705 20.1023C33.7705 20.189 33.7608 20.3622 33.8378 20.3622H39.9109C39.9879 20.3622 39.959 20.2275 39.9783 20.035C39.9975 19.7944 39.9975 19.5345 40.0264 19.2939C40.036 19.2362 40.0264 19.1688 40.0264 19.111L40.0937 18.1774C40.113 18.0042 40.1034 17.7829 40.1323 17.6096C40.1611 17.4268 40.1515 17.2343 40.1707 17.0418C40.1804 16.984 40.1707 16.9262 40.1804 16.8589L40.2766 15.3671C40.2766 15.2901 40.2766 15.2419 40.2862 15.165C40.3151 14.9532 40.3344 14.6164 40.3344 14.4047H40.7771C40.8444 14.4047 40.8348 14.4913 40.8541 14.549L41.3449 16.6086C41.4026 16.8492 41.47 17.1284 41.5278 17.369C41.7203 18.1197 41.9032 18.8608 42.0668 19.6211L42.2015 20.1889C42.2207 20.2563 42.2112 20.3525 42.2785 20.3525H46.0994C46.0994 20.2659 46.032 20.0734 46.0032 19.9772L45.6086 18.5046C45.4546 17.8791 45.2621 17.2631 45.1081 16.6375C44.9541 16.0216 44.7616 15.3959 44.6173 14.78C44.5884 14.6549 44.5403 14.5298 44.5114 14.4047C44.983 14.4047 45.3391 14.2796 45.599 14.0678C46.0321 13.7213 46.3015 13.192 46.2919 12.6049L46.5037 9.23634C46.5229 9.13049 46.5133 8.99574 46.5325 8.89949L46.571 8.21611C46.571 8.13912 46.5807 8.11991 46.5902 8.06212C46.5999 7.99476 46.5902 7.94662 46.5999 7.87927C46.6288 7.71567 46.6191 7.54242 46.6288 7.37878L46.6769 6.70509C46.6865 6.54144 46.6865 6.34895 46.7058 6.18535L46.7635 5.16516H47.9088C47.9088 5.48276 47.8606 5.79075 47.8606 6.10835L47.7932 7.05154C47.774 7.21514 47.7836 7.36913 47.774 7.53273L47.7066 8.47592C47.7066 8.64916 47.697 8.81276 47.6778 8.95712L47.4468 12.7492C47.4276 12.8839 47.4276 13.086 47.4179 13.2208C47.4179 13.3074 47.3987 13.3363 47.3987 13.4422L47.0907 18.4469C47.0811 18.5913 47.0522 18.7645 47.0522 18.9089L46.9945 19.8617C46.9753 20.0061 46.9656 20.1793 46.9656 20.3429H50.7385C50.8155 20.3429 50.7866 20.2371 50.7866 20.1504C50.7866 19.9964 50.8251 19.8425 50.8251 19.6692L50.9021 18.4758C50.9214 18.3507 50.931 18.1485 50.931 18.0042C50.931 17.9175 50.9502 17.8791 50.9502 17.7636C50.9502 17.6481 50.9695 17.6192 50.9695 17.523C50.9695 17.3979 50.9791 17.1765 50.9983 17.0513C51.0272 16.8877 51.008 16.7241 51.0272 16.5605C51.0368 16.4161 51.0561 16.2525 51.0561 16.0985L51.0946 15.6173C51.0946 15.5114 51.1042 15.4729 51.1138 15.3959L51.1523 14.6549C51.1715 14.3758 51.21 13.9908 51.2197 13.7117L51.2678 12.7492C51.2775 12.6048 51.3063 12.4412 51.3063 12.2872C51.3063 12.1236 51.3352 11.96 51.3448 11.806C51.3545 11.4692 51.3833 11.1805 51.3929 10.8436L51.7298 5.61746C51.7394 5.53082 51.7394 5.46347 51.7394 5.36722C51.7394 5.28058 51.7586 5.24212 51.7586 5.12662H54.261C54.1936 4.84752 54.1455 4.55878 54.0781 4.26043L53.8183 2.96111C53.7894 2.80711 53.7605 2.67237 53.7316 2.51841C53.7027 2.38367 53.6739 2.22967 53.645 2.09492C53.6161 1.94093 53.5679 1.79653 53.5679 1.64258H46.6383C46.6287 1.70997 46.6095 1.75812 46.5902 1.81582C46.5325 1.97942 46.4555 2.16232 46.417 2.32592H46.3785C46.3592 2.25852 46.2918 2.21038 46.2437 2.16227C46.1379 2.05642 46.0128 1.98907 45.8876 1.92168C45.57 1.72918 45.0695 1.64258 44.646 1.64258H37.3892C37.3892 1.90247 37.3507 2.10457 37.3507 2.34517C37.3507 2.42221 37.341 2.45106 37.341 2.49916C37.3314 2.56656 37.341 2.62426 37.3314 2.68205C37.3218 2.77826 37.3122 2.9323 37.3025 3.02855C37.2929 3.08625 37.3025 3.14404 37.3025 3.20175L37.2448 4.08723C37.2159 4.29898 37.2063 4.87646 37.1871 5.14591L37.1582 5.66565C37.1582 5.8485 37.1197 6.0025 37.1197 6.1757L37.0138 7.75412C37.0042 8.04287 36.9561 8.34121 36.9657 8.62996C36.9657 8.9187 36.9272 9.21705 36.9176 9.50579L36.7828 11.5847C36.7828 11.9985 36.7154 12.422 36.7154 12.8358H36.6962C36.6962 12.4893 36.5711 11.8349 36.5422 11.4499L36.5134 11.2189C36.5037 11.1227 36.5037 11.0746 36.4941 10.988L36.1669 8.22576C36.0802 7.61938 36.0418 6.98418 35.9455 6.38745L35.8878 5.9255L35.3969 1.76772C35.3777 1.59448 35.3584 1.65222 34.9927 1.65222L31.3739 1.65218L30.7194 4.35664C30.2093 6.3874 29.7377 8.42777 29.2276 10.4682C29.1699 10.6896 29.1121 10.9205 29.064 11.1419L27.9957 15.5403L27.909 15.8867L26.9177 19.9579C26.9081 19.9868 26.8311 20.2947 26.8311 20.2947C26.8407 20.3429 26.8311 20.3236 26.8888 20.3236H30.5942V20.3621L30.5943 20.3622Z" fill="#6E7E98"/>
</g>
<defs>
<clipPath id="clip0_232_51">
<rect width="52.3379" height="21.6839" fill="white" transform="translate(0.662109 0.160156)"/>
</clipPath>
</defs>
</svg>
