<svg width="59" height="77" viewBox="0 0 59 77" fill="none" xmlns="http://www.w3.org/2000/svg">
<g clip-path="url(#clip0_201_7)">
<path fill-rule="evenodd" clip-rule="evenodd" d="M1.77287 3.68497C2.50231 1.69804 3.50936 0.369285 4.10035 0.111527C4.75044 -0.172006 4.90178 0.0748873 4.64182 0.969297C4.21856 2.39579 3.88721 4.54419 4.25561 5.2276C4.38229 5.4513 5.28642 6.73508 5.91553 7.32663C7.32102 8.62497 7.90392 9.196 7.93671 10.2611C7.96801 11.2783 7.87958 11.7366 6.74362 12.9694C6.00165 13.7708 5.17543 14.4167 4.25561 14.8882C2.46312 15.8058 1.34023 16.2955 1.24192 16.2148C1.19257 16.1683 1.34078 15.9242 1.57239 15.6656C2.08237 15.1108 2.94843 13.6707 3.32805 12.7726C3.66314 11.9837 3.68081 11.0009 3.36358 10.4237C3.23691 10.2001 2.87588 9.75598 2.55442 9.43048C2.39142 9.26775 2.24158 9.12658 2.10474 8.99766C1.40117 8.33481 1.04101 7.99549 1.00155 6.71312C0.970765 5.71276 1.3442 4.77125 1.63336 4.0422C1.6832 3.91654 1.73053 3.7972 1.77287 3.68497ZM0.958596 59.0538C0.345293 58.4545 -0.000309138 57.6329 2.07491e-07 56.7754L0.00786132 34.9863C0.00787334 34.953 0.00840759 34.9197 0.00945958 34.8865V18.0255C0.00945958 17.1461 0.722326 16.4333 1.60169 16.4333H7.50959C8.38895 16.4333 9.10182 17.1461 9.10182 18.0255V24.485L16.2209 17.2881C16.8148 16.6877 17.623 16.3478 18.4675 16.3432L40.202 16.225C41.0465 16.2204 41.8584 16.5514 42.4588 17.1453L57.9038 32.4231C58.5085 33.0213 58.8488 33.8365 58.8488 34.6871V56.413C58.8488 57.2468 58.5217 58.0472 57.938 58.6426L42.7704 74.1105C42.1757 74.717 41.3633 75.0607 40.514 75.0653L18.7766 75.1836C17.9386 75.1883 17.1326 74.8623 16.5333 74.2766L0.958596 59.0538Z" fill="white"/>
<mask id="mask0_201_7" style="mask-type:luminance" maskUnits="userSpaceOnUse" x="9" y="25" width="42" height="41">
<path d="M50.0769 45.7376C50.0769 34.5473 41.0054 25.4758 29.8151 25.4758C18.6249 25.4758 9.55334 34.5473 9.55334 45.7376C9.55334 56.9279 18.6249 65.9994 29.8151 65.9994C41.0054 65.9994 50.0769 56.9279 50.0769 45.7376Z" fill="white"/>
</mask>
<g mask="url(#mask0_201_7)">
<path d="M50.0769 45.7376C50.0769 56.9278 41.0054 65.9994 29.8151 65.9994C18.6249 65.9994 9.55334 56.9278 9.55334 45.7376C9.55334 34.5474 18.6249 25.4758 29.8151 25.4758C41.0054 25.4758 50.0769 34.5474 50.0769 45.7376Z" fill="#07122E"/>
<path d="M24.2719 55.0307C25.1394 54.2144 25.9156 54.0086 26.8346 54.0086C26.8346 54.0086 27.2056 54.0185 26.9102 54.3917C26.5195 54.8858 23.6622 58.6124 23.707 61.6619C23.7587 65.1923 27.2548 64.9922 27.2548 64.9922C25.7842 62.1965 26.5252 59.552 26.7539 58.6258C27.187 56.9153 28.0396 55.2601 29.3218 53.6644C30.9028 51.6743 32.4975 50.7302 34.1046 50.8318C34.7924 49.6454 35.4024 48.6927 35.9369 47.9134C33.0258 45.3146 34.9211 44.0585 36.5718 39.0081C36.9553 40.0795 37.2607 40.8721 37.4902 41.3811C38.6565 41.2361 41.2437 41.2361 42.4094 41.3811C42.6388 40.8721 42.9442 40.0795 43.3278 39.0081C44.9827 44.072 46.8842 45.292 43.9395 47.9051C43.6261 53.8453 42.4011 55.4249 40.4191 58.2946C38.788 60.6562 39.1945 61.4972 38.4291 64.7629C44.2229 68.4128 34.4007 67.0135 32.8776 66.9382C28.9555 66.7476 20.7779 69.0927 21.4274 60.7446C21.6154 58.3268 22.7123 56.5116 24.2719 55.0307Z" fill="#F9FAFC"/>
<path fill-rule="evenodd" clip-rule="evenodd" d="M28.6472 65.8483V25.3259H30.2394V65.8483H28.6472Z" fill="white"/>
<path fill-rule="evenodd" clip-rule="evenodd" d="M50.0767 46.6608H9.55408V45.0686H50.0767V46.6608Z" fill="white"/>
</g>
</g>
<defs>
<clipPath id="clip0_201_7">
<rect width="58.9126" height="76.4272" fill="white"/>
</clipPath>
</defs>
</svg>
