<svg width="59" height="77" viewBox="0 0 59 77" fill="none" xmlns="http://www.w3.org/2000/svg">
<g clip-path="url(#clip0_201_192)">
<path fill-rule="evenodd" clip-rule="evenodd" d="M-0.655632 3.68497C0.0749412 1.69804 1.08357 0.369285 1.67548 0.111527C2.32659 -0.172006 2.47817 0.0748873 2.2178 0.969297C1.79387 2.39579 1.46201 4.54419 1.83098 5.2276C1.95786 5.4513 2.86341 6.73508 3.4935 7.32663C4.90119 8.62497 5.485 9.196 5.51784 10.2611C5.54919 11.2783 5.46062 11.7366 4.32288 12.9694C3.57975 13.7708 2.75224 14.4167 1.83098 14.8882C0.0356948 15.8058 -1.08895 16.2955 -1.18742 16.2148C-1.23684 16.1683 -1.0884 15.9242 -0.856424 15.6656C-0.345651 15.1108 0.521766 13.6707 0.901979 12.7726C1.23759 11.9837 1.25529 11.0009 0.937557 10.4237C0.810697 10.2001 0.449095 9.75598 0.127136 9.43048C-0.0361154 9.26775 -0.186195 9.12658 -0.323245 8.99766C-1.02792 8.33481 -1.38863 7.99549 -1.42816 6.71312C-1.45899 5.71276 -1.08498 4.77125 -0.795362 4.0422C-0.745447 3.91654 -0.698036 3.7972 -0.655632 3.68497ZM-1.47118 59.0538C-2.08544 58.4545 -2.43158 57.6329 -2.43127 56.7754L-2.4234 34.9863C-2.42339 34.953 -2.42285 34.9197 -2.4218 34.8865V18.0255C-2.4218 17.1461 -1.70782 16.4333 -0.827081 16.4333H5.09005C5.97078 16.4333 6.68477 17.1461 6.68477 18.0255V24.485L13.8149 17.2881C14.4098 16.6877 15.2193 16.3478 16.0651 16.3432L37.8335 16.225C38.6794 16.2204 39.4925 16.5514 40.0939 17.1453L55.563 32.4231C56.1687 33.0213 56.5094 33.8365 56.5094 34.6871V56.413C56.5094 57.2468 56.1819 58.0472 55.5973 58.6426L40.406 74.1105C39.8103 74.717 38.9967 75.0607 38.1461 75.0653L16.3746 75.1836C15.5353 75.1883 14.7281 74.8623 14.1278 74.2766L-1.47118 59.0538Z" fill="#07122E"/>
<mask id="mask0_201_192" style="mask-type:luminance" maskUnits="userSpaceOnUse" x="7" y="25" width="41" height="41">
<path d="M47.7239 45.7374C47.7239 34.5471 38.6382 25.4756 27.4304 25.4756C16.2227 25.4756 7.13696 34.5471 7.13696 45.7374C7.13696 56.9277 16.2227 65.9992 27.4304 65.9992C38.6382 65.9992 47.7239 56.9277 47.7239 45.7374Z" fill="white"/>
</mask>
<g mask="url(#mask0_201_192)">
<path d="M47.7239 45.7374C47.7239 56.9276 38.6381 65.9992 27.4304 65.9992C16.2227 65.9992 7.13696 56.9276 7.13696 45.7374C7.13696 34.5472 16.2227 25.4756 27.4304 25.4756C38.6381 25.4756 47.7239 34.5472 47.7239 45.7374Z" fill="white"/>
<path d="M21.8786 55.0305C22.7474 54.2141 23.5248 54.0084 24.4453 54.0084C24.4453 54.0084 24.8169 54.0183 24.521 54.3915C24.1297 54.8856 21.268 58.6122 21.3128 61.6616C21.3646 65.1921 24.8661 64.9919 24.8661 64.9919C23.3933 62.1963 24.1354 59.5518 24.3644 58.6256C24.7982 56.915 25.6522 55.2599 26.9364 53.6642C28.5198 51.674 30.1171 50.73 31.7266 50.8316C32.4155 49.6452 33.0265 48.6924 33.5618 47.9132C30.6462 45.3143 32.5444 44.0582 34.1976 39.0078C34.5818 40.0792 34.8877 40.8718 35.1175 41.3809C36.2856 41.2358 38.8769 41.2358 40.0444 41.3809C40.2742 40.8718 40.58 40.0792 40.9642 39.0078C42.6218 44.0718 44.5262 45.2917 41.5769 47.9049C41.2631 53.845 40.0361 55.4247 38.051 58.2944C36.4173 60.656 36.8245 61.497 36.0579 64.7627C41.8608 68.4125 32.0232 67.0133 30.4977 66.938C26.5695 66.7474 18.3791 69.0924 19.0296 60.7443C19.218 58.3265 20.3166 56.5114 21.8786 55.0305Z" fill="#07122E"/>
<path fill-rule="evenodd" clip-rule="evenodd" d="M26.2607 65.848V25.3257H27.8546V65.848H26.2607Z" fill="#07122E"/>
<path fill-rule="evenodd" clip-rule="evenodd" d="M47.7237 46.6606H7.1377V45.0684H47.7237V46.6606Z" fill="#07122E"/>
</g>
</g>
<defs>
<clipPath id="clip0_201_192">
<rect width="58.9126" height="76.4272" fill="white"/>
</clipPath>
</defs>
</svg>
