<svg width="228" height="228" viewBox="0 0 228 228" fill="none" xmlns="http://www.w3.org/2000/svg">
<g opacity="0.4">
<path d="M56.1587 121.849C55.7033 121.94 55.2702 122.12 54.8842 122.378C54.4982 122.636 54.1669 122.968 53.9092 123.355C53.6515 123.741 53.4724 124.174 53.3823 124.63C53.2922 125.086 53.2927 125.554 53.3839 126.01C54.4779 131.471 58.1188 139.149 65.4378 145.206C72.8505 151.339 83.8369 155.646 99.2772 154.559C100.209 154.489 101.075 154.052 101.686 153.345C102.297 152.638 102.603 151.717 102.537 150.785C102.471 149.853 102.039 148.985 101.335 148.371C100.63 147.756 99.7114 147.446 98.7788 147.507C85.0034 148.479 75.8463 144.642 69.9448 139.759C63.9532 134.799 61.1111 128.59 60.3175 124.622C60.1337 123.703 59.5923 122.895 58.8124 122.375C58.0325 121.855 57.078 121.666 56.1587 121.849Z" fill="#F9FAFC"/>
<path fill-rule="evenodd" clip-rule="evenodd" d="M192.639 15.824C193.576 15.824 194.475 16.1964 195.138 16.8593C195.801 17.5222 196.174 18.4213 196.174 19.3589V39.9319C196.174 40.8694 195.801 41.7685 195.138 42.4314C194.475 43.0943 193.576 43.4668 192.639 43.4668H190.516V114C190.516 114.938 190.144 115.837 189.481 116.5C188.818 117.163 187.919 117.535 186.981 117.535H166.857V130.973C166.857 131.446 166.762 131.915 166.577 132.351C166.393 132.787 166.123 133.181 165.783 133.511L149.883 148.928V160.12L165.509 172.43C165.929 172.761 166.268 173.182 166.502 173.663C166.736 174.144 166.857 174.672 166.857 175.207V182.276H186.981C187.919 182.276 188.818 182.649 189.481 183.312C190.144 183.975 190.516 184.874 190.516 185.811V209.154C190.516 210.091 190.144 210.99 189.481 211.653C188.818 212.316 187.919 212.689 186.981 212.689H76.912C75.9745 212.689 75.0754 212.316 74.4125 211.653C73.7496 210.99 73.3771 210.091 73.3771 209.154V196.81C73.3771 195.872 73.7483 194.974 74.4111 194.311L89.5775 179.143V170.977C71.592 169.514 58.87 160.913 50.3474 150.091C41.3776 138.705 37.0757 124.918 35.8526 114.408C35.7944 113.913 35.8419 113.411 35.9919 112.935C36.1419 112.459 36.3909 112.02 36.7228 111.648C37.0546 111.275 37.4615 110.977 37.9169 110.773C38.3722 110.57 38.8656 110.465 39.3645 110.465H183.446V43.4685H129.31V84.6888L136.067 99.6891C136.257 100.112 136.363 100.569 136.377 101.033C136.391 101.497 136.314 101.959 136.149 102.393C135.985 102.827 135.736 103.225 135.418 103.563C135.1 103.901 134.719 104.173 134.296 104.364C133.872 104.555 133.416 104.66 132.952 104.674C132.488 104.688 132.025 104.611 131.591 104.447C131.157 104.282 130.76 104.034 130.422 103.716C130.084 103.398 129.811 103.016 129.621 102.593L122.551 86.8999C122.346 86.4437 122.24 85.9491 122.24 85.4488V43.4685H119.601C118.664 43.4685 117.764 43.0961 117.102 42.4332C116.439 41.7703 116.066 40.8712 116.066 39.9336V19.3606C116.066 18.4231 116.439 17.524 117.102 16.8611C117.764 16.1982 118.664 15.8257 119.601 15.8257L192.639 15.824ZM189.104 36.397V22.8937H123.138V36.397H189.104ZM159.787 117.535V129.478L143.887 144.895C143.548 145.224 143.277 145.619 143.093 146.055C142.908 146.491 142.813 146.96 142.813 147.433V161.834C142.813 162.368 142.934 162.896 143.168 163.376C143.401 163.857 143.74 164.278 144.16 164.609L159.787 176.923V205.619H80.4469V198.273L95.6116 183.107C96.2745 182.444 96.6471 181.545 96.6473 180.608V171.18C105.626 170.986 115.691 169.12 126.945 165.171C127.383 165.017 127.786 164.779 128.132 164.469C128.478 164.159 128.76 163.784 128.961 163.366C129.162 162.947 129.278 162.493 129.304 162.03C129.33 161.566 129.264 161.102 129.11 160.664C128.956 160.226 128.718 159.822 128.408 159.477C128.098 159.131 127.723 158.849 127.305 158.648C126.886 158.447 126.432 158.33 125.969 158.305C125.505 158.279 125.041 158.345 124.603 158.499C112.464 162.758 102.072 164.363 93.2184 164.102C75.7278 163.58 63.81 155.759 55.9007 145.717C48.9688 136.918 45.0981 126.374 43.4703 117.535H159.787ZM166.857 205.619V189.346H183.446V205.619H166.857Z" fill="#F9FAFC"/>
<path d="M115.935 101.142C115.935 100.204 115.563 99.3053 114.9 98.6424C114.237 97.9795 113.338 97.6071 112.4 97.6071H39.3645C38.427 97.6071 37.5279 97.9795 36.8649 98.6424C36.202 99.3053 35.8296 100.204 35.8296 101.142C35.8296 102.079 36.202 102.979 36.8649 103.641C37.5279 104.304 38.427 104.677 39.3645 104.677H112.4C113.338 104.677 114.237 104.304 114.9 103.641C115.563 102.979 115.935 102.079 115.935 101.142Z" fill="#F9FAFC"/>
</g>
</svg>
