<svg width="47" height="46" viewBox="0 0 47 46" fill="none" xmlns="http://www.w3.org/2000/svg">
<circle cx="23.7676" cy="23" r="23" fill="#F63150"/>
<path d="M15.6713 14.6668C15.5356 14.6708 15.402 14.7001 15.2787 14.7528C15.1553 14.8055 15.0447 14.8806 14.9532 14.9736C14.8618 15.0667 14.7914 15.1757 14.7463 15.2944C14.7012 15.413 14.6823 15.5389 14.6907 15.6644C14.8263 17.8176 15.4659 23.0714 18.5281 26.3479C22.1949 30.2955 26.9704 31.6556 31.8699 31.4546C32.1325 31.4401 32.3794 31.3338 32.5607 31.1573C32.742 30.9808 32.8442 30.7472 32.8466 30.5036V27.0549C32.8436 26.7331 32.7239 26.4216 32.5066 26.1704C32.2894 25.9192 31.9874 25.7428 31.6489 25.6696L29.1953 25.1672C28.8918 25.1073 28.5759 25.1331 28.2885 25.2412C28.001 25.3494 27.7552 25.5348 27.5828 25.7737L27.0401 26.5345C26.9903 26.6041 26.9158 26.6555 26.8295 26.6797C26.7432 26.704 26.6505 26.6996 26.5673 26.6673C25.3191 26.1685 20.346 24.0153 19.7995 20.3835C19.7888 20.3134 19.8007 20.2419 19.8338 20.178C19.8669 20.1142 19.9197 20.0608 19.9855 20.0247L20.9701 19.4684C21.2401 19.3135 21.4522 19.0854 21.5777 18.8152C21.7032 18.545 21.736 18.2456 21.6717 17.9576L21.1329 15.6465C21.0541 15.3226 20.8566 15.0341 20.5739 14.83C20.2912 14.6258 19.9408 14.5187 19.5824 14.5268L15.6713 14.6668Z" fill="white"/>
</svg>
