<svg width="46" height="46" viewBox="0 0 46 46" fill="none" xmlns="http://www.w3.org/2000/svg">
<circle cx="23" cy="23" r="23" fill="white"/>
<path d="M14.9038 14.6668C14.768 14.6708 14.6345 14.7001 14.5111 14.7528C14.3878 14.8055 14.2771 14.8806 14.1857 14.9736C14.0942 15.0667 14.0239 15.1757 13.9788 15.2944C13.9337 15.413 13.9148 15.5389 13.9231 15.6644C14.0588 17.8176 14.6984 23.0714 17.7605 26.3479C21.4274 30.2955 26.2028 31.6556 31.1023 31.4546C31.3649 31.4401 31.6118 31.3338 31.7931 31.1573C31.9744 30.9808 32.0766 30.7472 32.0791 30.5036V27.0549C32.076 26.7331 31.9563 26.4216 31.7391 26.1704C31.5219 25.9192 31.2198 25.7428 30.8814 25.6696L28.4278 25.1672C28.1243 25.1073 27.8084 25.1331 27.5209 25.2412C27.2335 25.3494 26.9876 25.5348 26.8153 25.7737L26.2726 26.5345C26.2228 26.6041 26.1483 26.6555 26.062 26.6797C25.9757 26.704 25.8829 26.6996 25.7997 26.6673C24.5516 26.1685 19.5785 24.0153 19.0319 20.3835C19.0212 20.3134 19.0332 20.2419 19.0663 20.178C19.0994 20.1142 19.1522 20.0608 19.218 20.0247L20.2025 19.4684C20.4726 19.3135 20.6847 19.0854 20.8102 18.8152C20.9357 18.545 20.9684 18.2456 20.9041 17.9576L20.3653 15.6465C20.2866 15.3226 20.089 15.0341 19.8063 14.83C19.5236 14.6258 19.1733 14.5187 18.8149 14.5268L14.9038 14.6668Z" fill="#F63150"/>
</svg>
